%TF.GenerationSoftware,KiCad,Pcbnew,9.0.2*%
%TF.CreationDate,2025-06-22T22:51:18+05:30*%
%TF.ProjectId,hackboard,6861636b-626f-4617-9264-2e6b69636164,rev?*%
%TF.SameCoordinates,Original*%
%TF.FileFunction,Copper,L2,Bot*%
%TF.FilePolarity,Positive*%
%FSLAX46Y46*%
G04 Gerber Fmt 4.6, Leading zero omitted, Abs format (unit mm)*
G04 Created by KiCad (PCBNEW 9.0.2) date 2025-06-22 22:51:18*
%MOMM*%
%LPD*%
G01*
G04 APERTURE LIST*
G04 Aperture macros list*
%AMRoundRect*
0 Rectangle with rounded corners*
0 $1 Rounding radius*
0 $2 $3 $4 $5 $6 $7 $8 $9 X,Y pos of 4 corners*
0 Add a 4 corners polygon primitive as box body*
4,1,4,$2,$3,$4,$5,$6,$7,$8,$9,$2,$3,0*
0 Add four circle primitives for the rounded corners*
1,1,$1+$1,$2,$3*
1,1,$1+$1,$4,$5*
1,1,$1+$1,$6,$7*
1,1,$1+$1,$8,$9*
0 Add four rect primitives between the rounded corners*
20,1,$1+$1,$2,$3,$4,$5,0*
20,1,$1+$1,$4,$5,$6,$7,0*
20,1,$1+$1,$6,$7,$8,$9,0*
20,1,$1+$1,$8,$9,$2,$3,0*%
G04 Aperture macros list end*
%TA.AperFunction,ComponentPad*%
%ADD10C,2.200000*%
%TD*%
%TA.AperFunction,ComponentPad*%
%ADD11R,1.700000X1.700000*%
%TD*%
%TA.AperFunction,ComponentPad*%
%ADD12O,1.700000X1.700000*%
%TD*%
%TA.AperFunction,ComponentPad*%
%ADD13R,2.000000X2.000000*%
%TD*%
%TA.AperFunction,ComponentPad*%
%ADD14C,2.000000*%
%TD*%
%TA.AperFunction,ComponentPad*%
%ADD15C,3.200000*%
%TD*%
%TA.AperFunction,ComponentPad*%
%ADD16RoundRect,0.250000X0.550000X-0.550000X0.550000X0.550000X-0.550000X0.550000X-0.550000X-0.550000X0*%
%TD*%
%TA.AperFunction,ComponentPad*%
%ADD17C,1.600000*%
%TD*%
%TA.AperFunction,SMDPad,CuDef*%
%ADD18R,3.500000X1.700000*%
%TD*%
%TA.AperFunction,SMDPad,CuDef*%
%ADD19R,1.700000X3.500000*%
%TD*%
%TA.AperFunction,ViaPad*%
%ADD20C,0.600000*%
%TD*%
%TA.AperFunction,Conductor*%
%ADD21C,0.200000*%
%TD*%
G04 APERTURE END LIST*
D10*
%TO.P,SW44,1,1*%
%TO.N,col3*%
X128825000Y-293540000D03*
%TO.P,SW44,2,2*%
%TO.N,Net-(D44-A)*%
X122475000Y-296080000D03*
%TD*%
%TO.P,SW43,1,1*%
%TO.N,col2*%
X109790000Y-293540000D03*
%TO.P,SW43,2,2*%
%TO.N,Net-(D43-A)*%
X103440000Y-296080000D03*
%TD*%
%TO.P,SW52,1,1*%
%TO.N,col11*%
X281220000Y-293540000D03*
%TO.P,SW52,2,2*%
%TO.N,Net-(D52-A)*%
X274870000Y-296080000D03*
%TD*%
%TO.P,SW22,1,1*%
%TO.N,col9*%
X228880000Y-255440000D03*
%TO.P,SW22,2,2*%
%TO.N,Net-(D22-A)*%
X222530000Y-257980000D03*
%TD*%
%TO.P,SW18,1,1*%
%TO.N,col5*%
X152660000Y-255440000D03*
%TO.P,SW18,2,2*%
%TO.N,Net-(D18-A)*%
X146310000Y-257980000D03*
%TD*%
%TO.P,SW39,1,1*%
%TO.N,col12*%
X295510000Y-274500000D03*
%TO.P,SW39,2,2*%
%TO.N,Net-(D39-A)*%
X289160000Y-277040000D03*
%TD*%
%TO.P,SW74,1,1*%
%TO.N,col7*%
X316920000Y-331660000D03*
%TO.P,SW74,2,2*%
%TO.N,Net-(D74-A)*%
X310570000Y-334200000D03*
%TD*%
%TO.P,SW42,1,1*%
%TO.N,col1*%
X83600000Y-293560000D03*
%TO.P,SW42,2,2*%
%TO.N,Net-(D42-A)*%
X77250000Y-296100000D03*
%TD*%
%TO.P,SW27,1,1*%
%TO.N,col14*%
X333640000Y-255460000D03*
%TO.P,SW27,2,2*%
%TO.N,Net-(D27-A)*%
X327290000Y-258000000D03*
%TD*%
%TO.P,SW26,1,1*%
%TO.N,col13*%
X305020000Y-255450000D03*
%TO.P,SW26,2,2*%
%TO.N,Net-(D26-A)*%
X298670000Y-257990000D03*
%TD*%
%TO.P,SW68,1,1*%
%TO.N,col1*%
X78810000Y-331710000D03*
%TO.P,SW68,2,2*%
%TO.N,Net-(D68-A)*%
X72460000Y-334250000D03*
%TD*%
%TO.P,SW37,1,1*%
%TO.N,col10*%
X257350000Y-274530000D03*
%TO.P,SW37,2,2*%
%TO.N,Net-(D37-A)*%
X251000000Y-277070000D03*
%TD*%
%TO.P,SW49,1,1*%
%TO.N,col8*%
X224110000Y-293550000D03*
%TO.P,SW49,2,2*%
%TO.N,Net-(D49-A)*%
X217760000Y-296090000D03*
%TD*%
D11*
%TO.P,Brd1,1,GND*%
%TO.N,GND*%
X395230000Y-224870000D03*
D12*
%TO.P,Brd1,2,VCC*%
%TO.N,+5V*%
X395230000Y-227410000D03*
%TO.P,Brd1,3,SCL*%
%TO.N,Net-(Brd1-SCL)*%
X395230000Y-229950000D03*
%TO.P,Brd1,4,SDA*%
%TO.N,Net-(Brd1-SDA)*%
X395230000Y-232490000D03*
%TD*%
D10*
%TO.P,SW47,1,1*%
%TO.N,col6*%
X185980000Y-293540000D03*
%TO.P,SW47,2,2*%
%TO.N,Net-(D47-A)*%
X179630000Y-296080000D03*
%TD*%
%TO.P,SW45,1,1*%
%TO.N,col4*%
X147880000Y-293570000D03*
%TO.P,SW45,2,2*%
%TO.N,Net-(D45-A)*%
X141530000Y-296110000D03*
%TD*%
%TO.P,SW34,1,1*%
%TO.N,col7*%
X200240000Y-274520000D03*
%TO.P,SW34,2,2*%
%TO.N,Net-(D34-A)*%
X193890000Y-277060000D03*
%TD*%
%TO.P,SW12,1,1*%
%TO.N,col12*%
X324120000Y-226890000D03*
%TO.P,SW12,2,2*%
%TO.N,Net-(D12-A)*%
X317770000Y-229430000D03*
%TD*%
%TO.P,SW10,1,1*%
%TO.N,col10*%
X285960000Y-226860000D03*
%TO.P,SW10,2,2*%
%TO.N,Net-(D10-A)*%
X279610000Y-229400000D03*
%TD*%
%TO.P,SW4,1,1*%
%TO.N,col4*%
X152610000Y-226850000D03*
%TO.P,SW4,2,2*%
%TO.N,Net-(D4-A)*%
X146260000Y-229390000D03*
%TD*%
%TO.P,SW32,1,1*%
%TO.N,col5*%
X162150000Y-274510000D03*
%TO.P,SW32,2,2*%
%TO.N,Net-(D32-A)*%
X155800000Y-277050000D03*
%TD*%
%TO.P,SW35,1,1*%
%TO.N,col8*%
X219310000Y-274520000D03*
%TO.P,SW35,2,2*%
%TO.N,Net-(D35-A)*%
X212960000Y-277060000D03*
%TD*%
%TO.P,SW58,1,1*%
%TO.N,col4*%
X157400000Y-312620000D03*
%TO.P,SW58,2,2*%
%TO.N,Net-(D58-A)*%
X151050000Y-315160000D03*
%TD*%
%TO.P,SW16,1,1*%
%TO.N,col3*%
X114580000Y-255410000D03*
%TO.P,SW16,2,2*%
%TO.N,Net-(D16-A)*%
X108230000Y-257950000D03*
%TD*%
%TO.P,SW59,1,1*%
%TO.N,col5*%
X176450000Y-312590000D03*
%TO.P,SW59,2,2*%
%TO.N,Net-(D59-A)*%
X170100000Y-315130000D03*
%TD*%
%TO.P,SW78,1,1*%
%TO.N,col11*%
X405060000Y-331660000D03*
%TO.P,SW78,2,2*%
%TO.N,Net-(D78-A)*%
X398710000Y-334200000D03*
%TD*%
%TO.P,SW7,1,1*%
%TO.N,col7*%
X219360000Y-226920000D03*
%TO.P,SW7,2,2*%
%TO.N,Net-(D7-A)*%
X213010000Y-229460000D03*
%TD*%
%TO.P,SW6,1,1*%
%TO.N,col6*%
X200270000Y-226830000D03*
%TO.P,SW6,2,2*%
%TO.N,Net-(D6-A)*%
X193920000Y-229370000D03*
%TD*%
%TO.P,SW19,1,1*%
%TO.N,col6*%
X171690000Y-255440000D03*
%TO.P,SW19,2,2*%
%TO.N,Net-(D19-A)*%
X165340000Y-257980000D03*
%TD*%
%TO.P,SW28,1,1*%
%TO.N,col1*%
X81190000Y-274500000D03*
%TO.P,SW28,2,2*%
%TO.N,Net-(D28-A)*%
X74840000Y-277040000D03*
%TD*%
%TO.P,SW23,1,1*%
%TO.N,col10*%
X247920000Y-255480000D03*
%TO.P,SW23,2,2*%
%TO.N,Net-(D23-A)*%
X241570000Y-258020000D03*
%TD*%
%TO.P,SW2,1,1*%
%TO.N,col2*%
X114600000Y-226870000D03*
%TO.P,SW2,2,2*%
%TO.N,Net-(D2-A)*%
X108250000Y-229410000D03*
%TD*%
%TO.P,SW72,1,1*%
%TO.N,col5*%
X221680000Y-331660000D03*
%TO.P,SW72,2,2*%
%TO.N,Net-(D72-A)*%
X215330000Y-334200000D03*
%TD*%
%TO.P,SW55,1,1*%
%TO.N,col1*%
X88350000Y-312620000D03*
%TO.P,SW55,2,2*%
%TO.N,Net-(D55-A)*%
X82000000Y-315160000D03*
%TD*%
%TO.P,SW20,1,1*%
%TO.N,col7*%
X190770000Y-255440000D03*
%TO.P,SW20,2,2*%
%TO.N,Net-(D20-A)*%
X184420000Y-257980000D03*
%TD*%
%TO.P,SW36,1,1*%
%TO.N,col9*%
X238340000Y-274510000D03*
%TO.P,SW36,2,2*%
%TO.N,Net-(D36-A)*%
X231990000Y-277050000D03*
%TD*%
%TO.P,SW64,1,1*%
%TO.N,col10*%
X271710000Y-312630000D03*
%TO.P,SW64,2,2*%
%TO.N,Net-(D64-A)*%
X265360000Y-315170000D03*
%TD*%
%TO.P,SW8,1,1*%
%TO.N,col8*%
X238340000Y-226930000D03*
%TO.P,SW8,2,2*%
%TO.N,Net-(D8-A)*%
X231990000Y-229470000D03*
%TD*%
%TO.P,SW50,1,1*%
%TO.N,col9*%
X243060000Y-293520000D03*
%TO.P,SW50,2,2*%
%TO.N,Net-(D50-A)*%
X236710000Y-296060000D03*
%TD*%
%TO.P,SW54,1,1*%
%TO.N,col13*%
X331230000Y-293542500D03*
%TO.P,SW54,2,2*%
%TO.N,Net-(D54-A)*%
X324880000Y-296082500D03*
%TD*%
%TO.P,SW31,1,1*%
%TO.N,col4*%
X143090000Y-274510000D03*
%TO.P,SW31,2,2*%
%TO.N,Net-(D31-A)*%
X136740000Y-277050000D03*
%TD*%
%TO.P,SW17,1,1*%
%TO.N,col4*%
X133520000Y-255480000D03*
%TO.P,SW17,2,2*%
%TO.N,Net-(D17-A)*%
X127170000Y-258020000D03*
%TD*%
%TO.P,SW21,1,1*%
%TO.N,col8*%
X209810000Y-255440000D03*
%TO.P,SW21,2,2*%
%TO.N,Net-(D21-A)*%
X203460000Y-257980000D03*
%TD*%
D13*
%TO.P,SW79,A,A*%
%TO.N,enc2*%
X401910000Y-226900000D03*
D14*
%TO.P,SW79,B,B*%
%TO.N,enc1*%
X401910000Y-231900000D03*
%TO.P,SW79,C,C*%
%TO.N,GND*%
X401910000Y-229400000D03*
D15*
%TO.P,SW79,MP*%
%TO.N,N/C*%
X409410000Y-223800000D03*
X409410000Y-235000000D03*
D14*
%TO.P,SW79,S1,S1*%
%TO.N,Net-(D79-A)*%
X416410000Y-231900000D03*
%TO.P,SW79,S2,S2*%
%TO.N,col14*%
X416410000Y-226900000D03*
%TD*%
D10*
%TO.P,SW60,1,1*%
%TO.N,col6*%
X195500000Y-312590000D03*
%TO.P,SW60,2,2*%
%TO.N,Net-(D60-A)*%
X189150000Y-315130000D03*
%TD*%
%TO.P,SW71,1,1*%
%TO.N,col4*%
X150300000Y-331710000D03*
%TO.P,SW71,2,2*%
%TO.N,Net-(D71-A)*%
X143950000Y-334250000D03*
%TD*%
%TO.P,SW76,1,1*%
%TO.N,col9*%
X366960000Y-331620000D03*
%TO.P,SW76,2,2*%
%TO.N,Net-(D76-A)*%
X360610000Y-334160000D03*
%TD*%
%TO.P,SW69,1,1*%
%TO.N,col2*%
X102630000Y-331670000D03*
%TO.P,SW69,2,2*%
%TO.N,Net-(D69-A)*%
X96280000Y-334210000D03*
%TD*%
%TO.P,SW48,1,1*%
%TO.N,col7*%
X205010000Y-293570000D03*
%TO.P,SW48,2,2*%
%TO.N,Net-(D48-A)*%
X198660000Y-296110000D03*
%TD*%
%TO.P,SW11,1,1*%
%TO.N,col11*%
X305020000Y-226890000D03*
%TO.P,SW11,2,2*%
%TO.N,Net-(D11-A)*%
X298670000Y-229430000D03*
%TD*%
%TO.P,SW63,1,1*%
%TO.N,col9*%
X252650000Y-312630000D03*
%TO.P,SW63,2,2*%
%TO.N,Net-(D63-A)*%
X246300000Y-315170000D03*
%TD*%
%TO.P,SW29,1,1*%
%TO.N,col2*%
X105000000Y-274520000D03*
%TO.P,SW29,2,2*%
%TO.N,Net-(D29-A)*%
X98650000Y-277060000D03*
%TD*%
%TO.P,SW46,1,1*%
%TO.N,col5*%
X166900000Y-293540000D03*
%TO.P,SW46,2,2*%
%TO.N,Net-(D46-A)*%
X160550000Y-296080000D03*
%TD*%
%TO.P,SW33,1,1*%
%TO.N,col6*%
X181160000Y-274490000D03*
%TO.P,SW33,2,2*%
%TO.N,Net-(D33-A)*%
X174810000Y-277030000D03*
%TD*%
%TO.P,SW41,1,1*%
%TO.N,col14*%
X338380000Y-274520000D03*
%TO.P,SW41,2,2*%
%TO.N,Net-(D41-A)*%
X332030000Y-277060000D03*
%TD*%
%TO.P,SW1,1,1*%
%TO.N,col1*%
X76435000Y-226870000D03*
%TO.P,SW1,2,2*%
%TO.N,Net-(D1-A)*%
X70085000Y-229410000D03*
%TD*%
%TO.P,SW25,1,1*%
%TO.N,col12*%
X286000000Y-255480000D03*
%TO.P,SW25,2,2*%
%TO.N,Net-(D25-A)*%
X279650000Y-258020000D03*
%TD*%
%TO.P,SW57,1,1*%
%TO.N,col3*%
X138390000Y-312620000D03*
%TO.P,SW57,2,2*%
%TO.N,Net-(D57-A)*%
X132040000Y-315160000D03*
%TD*%
%TO.P,SW40,1,1*%
%TO.N,col13*%
X314540000Y-274500000D03*
%TO.P,SW40,2,2*%
%TO.N,Net-(D40-A)*%
X308190000Y-277040000D03*
%TD*%
%TO.P,SW61,1,1*%
%TO.N,col7*%
X214550000Y-312590000D03*
%TO.P,SW61,2,2*%
%TO.N,Net-(D61-A)*%
X208200000Y-315130000D03*
%TD*%
%TO.P,SW9,1,1*%
%TO.N,col9*%
X257430000Y-226830000D03*
%TO.P,SW9,2,2*%
%TO.N,Net-(D9-A)*%
X251080000Y-229370000D03*
%TD*%
%TO.P,SW5,1,1*%
%TO.N,col5*%
X171710000Y-226850000D03*
%TO.P,SW5,2,2*%
%TO.N,Net-(D5-A)*%
X165360000Y-229390000D03*
%TD*%
%TO.P,SW14,1,1*%
%TO.N,col1*%
X76360000Y-255440000D03*
%TO.P,SW14,2,2*%
%TO.N,Net-(D14-A)*%
X70010000Y-257980000D03*
%TD*%
%TO.P,SW77,1,1*%
%TO.N,col10*%
X386020000Y-331690000D03*
%TO.P,SW77,2,2*%
%TO.N,Net-(D77-A)*%
X379670000Y-334230000D03*
%TD*%
%TO.P,SW75,1,1*%
%TO.N,col8*%
X340740000Y-331680000D03*
%TO.P,SW75,2,2*%
%TO.N,Net-(D75-A)*%
X334390000Y-334220000D03*
%TD*%
%TO.P,SW53,1,1*%
%TO.N,col12*%
X300310000Y-293580000D03*
%TO.P,SW53,2,2*%
%TO.N,Net-(D53-A)*%
X293960000Y-296120000D03*
%TD*%
%TO.P,SW70,1,1*%
%TO.N,col3*%
X126460000Y-331650000D03*
%TO.P,SW70,2,2*%
%TO.N,Net-(D70-A)*%
X120110000Y-334190000D03*
%TD*%
%TO.P,SW15,1,1*%
%TO.N,col2*%
X95500000Y-255480000D03*
%TO.P,SW15,2,2*%
%TO.N,Net-(D15-A)*%
X89150000Y-258020000D03*
%TD*%
%TO.P,SW62,1,1*%
%TO.N,col8*%
X233600000Y-312590000D03*
%TO.P,SW62,2,2*%
%TO.N,Net-(D62-A)*%
X227250000Y-315130000D03*
%TD*%
%TO.P,SW56,1,1*%
%TO.N,col2*%
X119270000Y-312590000D03*
%TO.P,SW56,2,2*%
%TO.N,Net-(D56-A)*%
X112920000Y-315130000D03*
%TD*%
%TO.P,SW3,1,1*%
%TO.N,col3*%
X133550000Y-226880000D03*
%TO.P,SW3,2,2*%
%TO.N,Net-(D3-A)*%
X127200000Y-229420000D03*
%TD*%
%TO.P,SW65,1,1*%
%TO.N,col11*%
X290740000Y-312590000D03*
%TO.P,SW65,2,2*%
%TO.N,Net-(D65-A)*%
X284390000Y-315130000D03*
%TD*%
%TO.P,SW38,1,1*%
%TO.N,col11*%
X276430000Y-274530000D03*
%TO.P,SW38,2,2*%
%TO.N,Net-(D38-A)*%
X270080000Y-277070000D03*
%TD*%
%TO.P,SW67,1,1*%
%TO.N,col13*%
X386010000Y-312630000D03*
%TO.P,SW67,2,2*%
%TO.N,Net-(D67-A)*%
X379660000Y-315170000D03*
%TD*%
%TO.P,SW24,1,1*%
%TO.N,col11*%
X266890000Y-255510000D03*
%TO.P,SW24,2,2*%
%TO.N,Net-(D24-A)*%
X260540000Y-258050000D03*
%TD*%
%TO.P,SW30,1,1*%
%TO.N,col3*%
X124080000Y-274510000D03*
%TO.P,SW30,2,2*%
%TO.N,Net-(D30-A)*%
X117730000Y-277050000D03*
%TD*%
%TO.P,SW51,1,1*%
%TO.N,col10*%
X262210000Y-293610000D03*
%TO.P,SW51,2,2*%
%TO.N,Net-(D51-A)*%
X255860000Y-296150000D03*
%TD*%
%TO.P,SW73,1,1*%
%TO.N,col6*%
X293110000Y-331630000D03*
%TO.P,SW73,2,2*%
%TO.N,Net-(D73-A)*%
X286760000Y-334170000D03*
%TD*%
%TO.P,SW13,1,1*%
%TO.N,col13*%
X343120000Y-226870000D03*
%TO.P,SW13,2,2*%
%TO.N,Net-(D13-A)*%
X336770000Y-229410000D03*
%TD*%
%TO.P,SW66,1,1*%
%TO.N,col12*%
X326470000Y-312590000D03*
%TO.P,SW66,2,2*%
%TO.N,Net-(D66-A)*%
X320120000Y-315130000D03*
%TD*%
D16*
%TO.P,D6,1,K*%
%TO.N,row1*%
X207850000Y-236300000D03*
D17*
%TO.P,D6,2,A*%
%TO.N,Net-(D6-A)*%
X207850000Y-228680000D03*
%TD*%
D16*
%TO.P,D52,1,K*%
%TO.N,row4*%
X288875000Y-302250000D03*
D17*
%TO.P,D52,2,A*%
%TO.N,Net-(D52-A)*%
X288875000Y-294630000D03*
%TD*%
D16*
%TO.P,D4,1,K*%
%TO.N,row1*%
X159250000Y-236095000D03*
D17*
%TO.P,D4,2,A*%
%TO.N,Net-(D4-A)*%
X159250000Y-228475000D03*
%TD*%
D16*
%TO.P,D69,1,K*%
%TO.N,row6*%
X111890000Y-340760000D03*
D17*
%TO.P,D69,2,A*%
%TO.N,Net-(D69-A)*%
X111890000Y-333140000D03*
%TD*%
D16*
%TO.P,D54,1,K*%
%TO.N,row4*%
X350675000Y-301575000D03*
D17*
%TO.P,D54,2,A*%
%TO.N,Net-(D54-A)*%
X350675000Y-293955000D03*
%TD*%
D16*
%TO.P,D40,1,K*%
%TO.N,row3*%
X322175000Y-283550000D03*
D17*
%TO.P,D40,2,A*%
%TO.N,Net-(D40-A)*%
X322175000Y-275930000D03*
%TD*%
D16*
%TO.P,D57,1,K*%
%TO.N,row5*%
X145350000Y-322670000D03*
D17*
%TO.P,D57,2,A*%
%TO.N,Net-(D57-A)*%
X145350000Y-315050000D03*
%TD*%
D16*
%TO.P,D2,1,K*%
%TO.N,row1*%
X121275000Y-235550000D03*
D17*
%TO.P,D2,2,A*%
%TO.N,Net-(D2-A)*%
X121275000Y-227930000D03*
%TD*%
D16*
%TO.P,D12,1,K*%
%TO.N,row1*%
X331425000Y-235250000D03*
D17*
%TO.P,D12,2,A*%
%TO.N,Net-(D12-A)*%
X331425000Y-227630000D03*
%TD*%
D16*
%TO.P,D47,1,K*%
%TO.N,row4*%
X193250000Y-303150000D03*
D17*
%TO.P,D47,2,A*%
%TO.N,Net-(D47-A)*%
X193250000Y-295530000D03*
%TD*%
D16*
%TO.P,D21,1,K*%
%TO.N,row2*%
X216825000Y-263775000D03*
D17*
%TO.P,D21,2,A*%
%TO.N,Net-(D21-A)*%
X216825000Y-256155000D03*
%TD*%
D16*
%TO.P,D25,1,K*%
%TO.N,row2*%
X293100000Y-263950000D03*
D17*
%TO.P,D25,2,A*%
%TO.N,Net-(D25-A)*%
X293100000Y-256330000D03*
%TD*%
D16*
%TO.P,D16,1,K*%
%TO.N,row2*%
X121425000Y-263150000D03*
D17*
%TO.P,D16,2,A*%
%TO.N,Net-(D16-A)*%
X121425000Y-255530000D03*
%TD*%
D16*
%TO.P,D36,1,K*%
%TO.N,row3*%
X245950000Y-282875000D03*
D17*
%TO.P,D36,2,A*%
%TO.N,Net-(D36-A)*%
X245950000Y-275255000D03*
%TD*%
D16*
%TO.P,D17,1,K*%
%TO.N,row2*%
X140700000Y-263800000D03*
D17*
%TO.P,D17,2,A*%
%TO.N,Net-(D17-A)*%
X140700000Y-256180000D03*
%TD*%
D16*
%TO.P,D62,1,K*%
%TO.N,row5*%
X240700000Y-321600000D03*
D17*
%TO.P,D62,2,A*%
%TO.N,Net-(D62-A)*%
X240700000Y-313980000D03*
%TD*%
D16*
%TO.P,D1,1,K*%
%TO.N,row1*%
X83500000Y-236100000D03*
D17*
%TO.P,D1,2,A*%
%TO.N,Net-(D1-A)*%
X83500000Y-228480000D03*
%TD*%
D16*
%TO.P,D20,1,K*%
%TO.N,row2*%
X197500000Y-264200000D03*
D17*
%TO.P,D20,2,A*%
%TO.N,Net-(D20-A)*%
X197500000Y-256580000D03*
%TD*%
D16*
%TO.P,D8,1,K*%
%TO.N,row1*%
X246350000Y-235900000D03*
D17*
%TO.P,D8,2,A*%
%TO.N,Net-(D8-A)*%
X246350000Y-228280000D03*
%TD*%
D16*
%TO.P,D24,1,K*%
%TO.N,row2*%
X274050000Y-264350000D03*
D17*
%TO.P,D24,2,A*%
%TO.N,Net-(D24-A)*%
X274050000Y-256730000D03*
%TD*%
D16*
%TO.P,D70,1,K*%
%TO.N,row6*%
X135670000Y-339970000D03*
D17*
%TO.P,D70,2,A*%
%TO.N,Net-(D70-A)*%
X135670000Y-332350000D03*
%TD*%
D16*
%TO.P,D14,1,K*%
%TO.N,row2*%
X83400000Y-263825000D03*
D17*
%TO.P,D14,2,A*%
%TO.N,Net-(D14-A)*%
X83400000Y-256205000D03*
%TD*%
D16*
%TO.P,D13,1,K*%
%TO.N,row1*%
X350650000Y-235475000D03*
D17*
%TO.P,D13,2,A*%
%TO.N,Net-(D13-A)*%
X350650000Y-227855000D03*
%TD*%
D16*
%TO.P,D55,1,K*%
%TO.N,row5*%
X106975000Y-322150000D03*
D17*
%TO.P,D55,2,A*%
%TO.N,Net-(D55-A)*%
X106975000Y-314530000D03*
%TD*%
D16*
%TO.P,D75,1,K*%
%TO.N,row6*%
X350930000Y-339950000D03*
D17*
%TO.P,D75,2,A*%
%TO.N,Net-(D75-A)*%
X350930000Y-332330000D03*
%TD*%
D16*
%TO.P,D23,1,K*%
%TO.N,row2*%
X254650000Y-264225000D03*
D17*
%TO.P,D23,2,A*%
%TO.N,Net-(D23-A)*%
X254650000Y-256605000D03*
%TD*%
D16*
%TO.P,D26,1,K*%
%TO.N,row2*%
X312275000Y-263925000D03*
D17*
%TO.P,D26,2,A*%
%TO.N,Net-(D26-A)*%
X312275000Y-256305000D03*
%TD*%
D16*
%TO.P,D68,1,K*%
%TO.N,row6*%
X88180000Y-340440000D03*
D17*
%TO.P,D68,2,A*%
%TO.N,Net-(D68-A)*%
X88180000Y-332820000D03*
%TD*%
D16*
%TO.P,D49,1,K*%
%TO.N,row4*%
X231725000Y-301975000D03*
D17*
%TO.P,D49,2,A*%
%TO.N,Net-(D49-A)*%
X231725000Y-294355000D03*
%TD*%
D16*
%TO.P,D10,1,K*%
%TO.N,row1*%
X293300000Y-235350000D03*
D17*
%TO.P,D10,2,A*%
%TO.N,Net-(D10-A)*%
X293300000Y-227730000D03*
%TD*%
D16*
%TO.P,D37,1,K*%
%TO.N,row3*%
X264220000Y-283210000D03*
D17*
%TO.P,D37,2,A*%
%TO.N,Net-(D37-A)*%
X264220000Y-275590000D03*
%TD*%
D16*
%TO.P,D42,1,K*%
%TO.N,row4*%
X97800000Y-302350000D03*
D17*
%TO.P,D42,2,A*%
%TO.N,Net-(D42-A)*%
X97800000Y-294730000D03*
%TD*%
D16*
%TO.P,D78,1,K*%
%TO.N,row6*%
X412020000Y-339840000D03*
D17*
%TO.P,D78,2,A*%
%TO.N,Net-(D78-A)*%
X412020000Y-332220000D03*
%TD*%
D16*
%TO.P,D5,1,K*%
%TO.N,row1*%
X178425000Y-236250000D03*
D17*
%TO.P,D5,2,A*%
%TO.N,Net-(D5-A)*%
X178425000Y-228630000D03*
%TD*%
D16*
%TO.P,D45,1,K*%
%TO.N,row4*%
X155375000Y-303050000D03*
D17*
%TO.P,D45,2,A*%
%TO.N,Net-(D45-A)*%
X155375000Y-295430000D03*
%TD*%
D16*
%TO.P,D19,1,K*%
%TO.N,row2*%
X178425000Y-264600000D03*
D17*
%TO.P,D19,2,A*%
%TO.N,Net-(D19-A)*%
X178425000Y-256980000D03*
%TD*%
D16*
%TO.P,D32,1,K*%
%TO.N,row3*%
X169750000Y-282750000D03*
D17*
%TO.P,D32,2,A*%
%TO.N,Net-(D32-A)*%
X169750000Y-275130000D03*
%TD*%
D12*
%TO.P,U1,1,GPIO0*%
%TO.N,row1*%
X377630000Y-219780000D03*
D18*
X378530000Y-219780000D03*
D12*
%TO.P,U1,2,GPIO1*%
%TO.N,row2*%
X377630000Y-222320000D03*
D18*
X378530000Y-222320000D03*
D11*
%TO.P,U1,3,GND*%
%TO.N,unconnected-(U1-GND-Pad3)*%
X377630000Y-224860000D03*
D18*
%TO.N,unconnected-(U1-GND-Pad3)_1*%
X378530000Y-224860000D03*
D12*
%TO.P,U1,4,GPIO2*%
%TO.N,row3*%
X377630000Y-227400000D03*
D18*
X378530000Y-227400000D03*
D12*
%TO.P,U1,5,GPIO3*%
%TO.N,row4*%
X377630000Y-229940000D03*
D18*
X378530000Y-229940000D03*
D12*
%TO.P,U1,6,GPIO4*%
%TO.N,Net-(Brd1-SDA)*%
X377630000Y-232480000D03*
D18*
X378530000Y-232480000D03*
D12*
%TO.P,U1,7,GPIO5*%
%TO.N,Net-(Brd1-SCL)*%
X377630000Y-235020000D03*
D18*
X378530000Y-235020000D03*
D11*
%TO.P,U1,8,GND*%
%TO.N,unconnected-(U1-GND-Pad8)*%
X377630000Y-237560000D03*
D18*
%TO.N,unconnected-(U1-GND-Pad8)_1*%
X378530000Y-237560000D03*
D12*
%TO.P,U1,9,GPIO6*%
%TO.N,row5*%
X377630000Y-240100000D03*
D18*
X378530000Y-240100000D03*
D12*
%TO.P,U1,10,GPIO7*%
%TO.N,row6*%
X377630000Y-242640000D03*
D18*
X378530000Y-242640000D03*
D12*
%TO.P,U1,11,GPIO8*%
%TO.N,col1*%
X377630000Y-245180000D03*
D18*
X378530000Y-245180000D03*
D12*
%TO.P,U1,12,GPIO9*%
%TO.N,col2*%
X377630000Y-247720000D03*
D18*
X378530000Y-247720000D03*
D11*
%TO.P,U1,13,GND*%
%TO.N,unconnected-(U1-GND-Pad13)*%
X377630000Y-250260000D03*
D18*
%TO.N,unconnected-(U1-GND-Pad13)_1*%
X378530000Y-250260000D03*
D12*
%TO.P,U1,14,GPIO10*%
%TO.N,col3*%
X377630000Y-252800000D03*
D18*
X378530000Y-252800000D03*
D12*
%TO.P,U1,15,GPIO11*%
%TO.N,col4*%
X377630000Y-255340000D03*
D18*
X378530000Y-255340000D03*
D12*
%TO.P,U1,16,GPIO12*%
%TO.N,col5*%
X377630000Y-257880000D03*
D18*
X378530000Y-257880000D03*
D12*
%TO.P,U1,17,GPIO13*%
%TO.N,col6*%
X377630000Y-260420000D03*
D18*
X378530000Y-260420000D03*
D11*
%TO.P,U1,18,GND*%
%TO.N,unconnected-(U1-GND-Pad18)_1*%
X377630000Y-262960000D03*
D18*
%TO.N,unconnected-(U1-GND-Pad18)*%
X378530000Y-262960000D03*
D12*
%TO.P,U1,19,GPIO14*%
%TO.N,col7*%
X377630000Y-265500000D03*
D18*
X378530000Y-265500000D03*
D12*
%TO.P,U1,20,GPIO15*%
%TO.N,col8*%
X377630000Y-268040000D03*
D18*
X378530000Y-268040000D03*
D12*
%TO.P,U1,21,GPIO16*%
%TO.N,col9*%
X359850000Y-268040000D03*
D18*
X358950000Y-268040000D03*
D12*
%TO.P,U1,22,GPIO17*%
%TO.N,col10*%
X359850000Y-265500000D03*
D18*
X358950000Y-265500000D03*
D11*
%TO.P,U1,23,GND*%
%TO.N,unconnected-(U1-GND-Pad23)*%
X359850000Y-262960000D03*
D18*
%TO.N,unconnected-(U1-GND-Pad23)_1*%
X358950000Y-262960000D03*
D12*
%TO.P,U1,24,GPIO18*%
%TO.N,col11*%
X359850000Y-260420000D03*
D18*
X358950000Y-260420000D03*
D12*
%TO.P,U1,25,GPIO19*%
%TO.N,col12*%
X359850000Y-257880000D03*
D18*
X358950000Y-257880000D03*
D12*
%TO.P,U1,26,GPIO20*%
%TO.N,col13*%
X359850000Y-255340000D03*
D18*
X358950000Y-255340000D03*
D12*
%TO.P,U1,27,GPIO21*%
%TO.N,col14*%
X359850000Y-252800000D03*
D18*
X358950000Y-252800000D03*
D11*
%TO.P,U1,28,GND*%
%TO.N,unconnected-(U1-GND-Pad28)*%
X359850000Y-250260000D03*
D18*
%TO.N,unconnected-(U1-GND-Pad28)_1*%
X358950000Y-250260000D03*
D12*
%TO.P,U1,29,GPIO22*%
%TO.N,enc1*%
X359850000Y-247720000D03*
D18*
X358950000Y-247720000D03*
D12*
%TO.P,U1,30,RUN*%
%TO.N,unconnected-(U1-RUN-Pad30)_1*%
X359850000Y-245180000D03*
D18*
%TO.N,unconnected-(U1-RUN-Pad30)*%
X358950000Y-245180000D03*
D12*
%TO.P,U1,31,GPIO26_ADC0*%
%TO.N,enc2*%
X359850000Y-242640000D03*
D18*
X358950000Y-242640000D03*
D12*
%TO.P,U1,32,GPIO27_ADC1*%
%TO.N,unconnected-(U1-GPIO27_ADC1-Pad32)_1*%
X359850000Y-240100000D03*
D18*
%TO.N,unconnected-(U1-GPIO27_ADC1-Pad32)*%
X358950000Y-240100000D03*
D11*
%TO.P,U1,33,AGND*%
%TO.N,unconnected-(U1-AGND-Pad33)*%
X359850000Y-237560000D03*
D18*
%TO.N,unconnected-(U1-AGND-Pad33)_1*%
X358950000Y-237560000D03*
D12*
%TO.P,U1,34,GPIO28_ADC2*%
%TO.N,unconnected-(U1-GPIO28_ADC2-Pad34)_1*%
X359850000Y-235020000D03*
D18*
%TO.N,unconnected-(U1-GPIO28_ADC2-Pad34)*%
X358950000Y-235020000D03*
D12*
%TO.P,U1,35,ADC_VREF*%
%TO.N,unconnected-(U1-ADC_VREF-Pad35)*%
X359850000Y-232480000D03*
D18*
%TO.N,unconnected-(U1-ADC_VREF-Pad35)_1*%
X358950000Y-232480000D03*
D12*
%TO.P,U1,36,3V3*%
%TO.N,unconnected-(U1-3V3-Pad36)_1*%
X359850000Y-229940000D03*
D18*
%TO.N,unconnected-(U1-3V3-Pad36)*%
X358950000Y-229940000D03*
D12*
%TO.P,U1,37,3V3_EN*%
%TO.N,unconnected-(U1-3V3_EN-Pad37)*%
X359850000Y-227400000D03*
D18*
%TO.N,unconnected-(U1-3V3_EN-Pad37)_1*%
X358950000Y-227400000D03*
D11*
%TO.P,U1,38,GND*%
%TO.N,GND*%
X359850000Y-224860000D03*
D18*
X358950000Y-224860000D03*
D12*
%TO.P,U1,39,VSYS*%
%TO.N,unconnected-(U1-VSYS-Pad39)*%
X359850000Y-222320000D03*
D18*
%TO.N,unconnected-(U1-VSYS-Pad39)_1*%
X358950000Y-222320000D03*
D12*
%TO.P,U1,40,VBUS*%
%TO.N,+5V*%
X359850000Y-219780000D03*
D18*
X358950000Y-219780000D03*
D12*
%TO.P,U1,41,SWCLK*%
%TO.N,unconnected-(U1-SWCLK-Pad41)*%
X371280000Y-267810000D03*
D19*
%TO.N,unconnected-(U1-SWCLK-Pad41)_1*%
X371280000Y-268710000D03*
D11*
%TO.P,U1,42,GND*%
%TO.N,unconnected-(U1-GND-Pad42)*%
X368740000Y-267810000D03*
D19*
%TO.N,unconnected-(U1-GND-Pad42)_1*%
X368740000Y-268710000D03*
D12*
%TO.P,U1,43,SWDIO*%
%TO.N,unconnected-(U1-SWDIO-Pad43)_1*%
X366200000Y-267810000D03*
D19*
%TO.N,unconnected-(U1-SWDIO-Pad43)*%
X366200000Y-268710000D03*
%TD*%
D16*
%TO.P,D64,1,K*%
%TO.N,row5*%
X278875000Y-321725000D03*
D17*
%TO.P,D64,2,A*%
%TO.N,Net-(D64-A)*%
X278875000Y-314105000D03*
%TD*%
D16*
%TO.P,D72,1,K*%
%TO.N,row6*%
X279000000Y-339960000D03*
D17*
%TO.P,D72,2,A*%
%TO.N,Net-(D72-A)*%
X279000000Y-332340000D03*
%TD*%
D16*
%TO.P,D60,1,K*%
%TO.N,row5*%
X202350000Y-321725000D03*
D17*
%TO.P,D60,2,A*%
%TO.N,Net-(D60-A)*%
X202350000Y-314105000D03*
%TD*%
D16*
%TO.P,D31,1,K*%
%TO.N,row3*%
X150525000Y-283075000D03*
D17*
%TO.P,D31,2,A*%
%TO.N,Net-(D31-A)*%
X150525000Y-275455000D03*
%TD*%
D16*
%TO.P,D39,1,K*%
%TO.N,row3*%
X303625000Y-283235000D03*
D17*
%TO.P,D39,2,A*%
%TO.N,Net-(D39-A)*%
X303625000Y-275615000D03*
%TD*%
D16*
%TO.P,D76,1,K*%
%TO.N,row6*%
X373940000Y-339760000D03*
D17*
%TO.P,D76,2,A*%
%TO.N,Net-(D76-A)*%
X373940000Y-332140000D03*
%TD*%
D16*
%TO.P,D56,1,K*%
%TO.N,row5*%
X126450000Y-322625000D03*
D17*
%TO.P,D56,2,A*%
%TO.N,Net-(D56-A)*%
X126450000Y-315005000D03*
%TD*%
D16*
%TO.P,D48,1,K*%
%TO.N,row4*%
X212650000Y-302125000D03*
D17*
%TO.P,D48,2,A*%
%TO.N,Net-(D48-A)*%
X212650000Y-294505000D03*
%TD*%
D16*
%TO.P,D53,1,K*%
%TO.N,row4*%
X307600000Y-302500000D03*
D17*
%TO.P,D53,2,A*%
%TO.N,Net-(D53-A)*%
X307600000Y-294880000D03*
%TD*%
D16*
%TO.P,D3,1,K*%
%TO.N,row1*%
X140675000Y-235975000D03*
D17*
%TO.P,D3,2,A*%
%TO.N,Net-(D3-A)*%
X140675000Y-228355000D03*
%TD*%
D16*
%TO.P,D65,1,K*%
%TO.N,row5*%
X298000000Y-321825000D03*
D17*
%TO.P,D65,2,A*%
%TO.N,Net-(D65-A)*%
X298000000Y-314205000D03*
%TD*%
D16*
%TO.P,D74,1,K*%
%TO.N,row6*%
X326870000Y-340190000D03*
D17*
%TO.P,D74,2,A*%
%TO.N,Net-(D74-A)*%
X326870000Y-332570000D03*
%TD*%
D16*
%TO.P,D28,1,K*%
%TO.N,row3*%
X92825000Y-282575000D03*
D17*
%TO.P,D28,2,A*%
%TO.N,Net-(D28-A)*%
X92825000Y-274955000D03*
%TD*%
D16*
%TO.P,D71,1,K*%
%TO.N,row6*%
X159760000Y-340070000D03*
D17*
%TO.P,D71,2,A*%
%TO.N,Net-(D71-A)*%
X159760000Y-332450000D03*
%TD*%
D16*
%TO.P,D50,1,K*%
%TO.N,row4*%
X250800000Y-302225000D03*
D17*
%TO.P,D50,2,A*%
%TO.N,Net-(D50-A)*%
X250800000Y-294605000D03*
%TD*%
D16*
%TO.P,D77,1,K*%
%TO.N,row6*%
X393140000Y-339230000D03*
D17*
%TO.P,D77,2,A*%
%TO.N,Net-(D77-A)*%
X393140000Y-331610000D03*
%TD*%
D16*
%TO.P,D41,1,K*%
%TO.N,row3*%
X350250000Y-282710000D03*
D17*
%TO.P,D41,2,A*%
%TO.N,Net-(D41-A)*%
X350250000Y-275090000D03*
%TD*%
D16*
%TO.P,D38,1,K*%
%TO.N,row3*%
X284475000Y-283000000D03*
D17*
%TO.P,D38,2,A*%
%TO.N,Net-(D38-A)*%
X284475000Y-275380000D03*
%TD*%
D16*
%TO.P,D63,1,K*%
%TO.N,row5*%
X259750000Y-321775000D03*
D17*
%TO.P,D63,2,A*%
%TO.N,Net-(D63-A)*%
X259750000Y-314155000D03*
%TD*%
D16*
%TO.P,D11,1,K*%
%TO.N,row1*%
X312475000Y-235125000D03*
D17*
%TO.P,D11,2,A*%
%TO.N,Net-(D11-A)*%
X312475000Y-227505000D03*
%TD*%
D16*
%TO.P,D15,1,K*%
%TO.N,row2*%
X102075000Y-263625000D03*
D17*
%TO.P,D15,2,A*%
%TO.N,Net-(D15-A)*%
X102075000Y-256005000D03*
%TD*%
D16*
%TO.P,D67,1,K*%
%TO.N,row5*%
X399310000Y-320750000D03*
D17*
%TO.P,D67,2,A*%
%TO.N,Net-(D67-A)*%
X399310000Y-313130000D03*
%TD*%
D16*
%TO.P,D9,1,K*%
%TO.N,row1*%
X265375000Y-236025000D03*
D17*
%TO.P,D9,2,A*%
%TO.N,Net-(D9-A)*%
X265375000Y-228405000D03*
%TD*%
D16*
%TO.P,D59,1,K*%
%TO.N,row5*%
X183675000Y-321375000D03*
D17*
%TO.P,D59,2,A*%
%TO.N,Net-(D59-A)*%
X183675000Y-313755000D03*
%TD*%
D16*
%TO.P,D22,1,K*%
%TO.N,row2*%
X235800000Y-264025000D03*
D17*
%TO.P,D22,2,A*%
%TO.N,Net-(D22-A)*%
X235800000Y-256405000D03*
%TD*%
D16*
%TO.P,D27,1,K*%
%TO.N,row2*%
X350450000Y-263575000D03*
D17*
%TO.P,D27,2,A*%
%TO.N,Net-(D27-A)*%
X350450000Y-255955000D03*
%TD*%
D16*
%TO.P,D46,1,K*%
%TO.N,row4*%
X174075000Y-302675000D03*
D17*
%TO.P,D46,2,A*%
%TO.N,Net-(D46-A)*%
X174075000Y-295055000D03*
%TD*%
D16*
%TO.P,D18,1,K*%
%TO.N,row2*%
X159575000Y-264375000D03*
D17*
%TO.P,D18,2,A*%
%TO.N,Net-(D18-A)*%
X159575000Y-256755000D03*
%TD*%
D16*
%TO.P,D7,1,K*%
%TO.N,row1*%
X227025000Y-235750000D03*
D17*
%TO.P,D7,2,A*%
%TO.N,Net-(D7-A)*%
X227025000Y-228130000D03*
%TD*%
D16*
%TO.P,D58,1,K*%
%TO.N,row5*%
X164350000Y-322400000D03*
D17*
%TO.P,D58,2,A*%
%TO.N,Net-(D58-A)*%
X164350000Y-314780000D03*
%TD*%
D16*
%TO.P,D44,1,K*%
%TO.N,row4*%
X135925000Y-303225000D03*
D17*
%TO.P,D44,2,A*%
%TO.N,Net-(D44-A)*%
X135925000Y-295605000D03*
%TD*%
D16*
%TO.P,D66,1,K*%
%TO.N,row5*%
X350300000Y-321150000D03*
D17*
%TO.P,D66,2,A*%
%TO.N,Net-(D66-A)*%
X350300000Y-313530000D03*
%TD*%
D16*
%TO.P,D30,1,K*%
%TO.N,row3*%
X131500000Y-283000000D03*
D17*
%TO.P,D30,2,A*%
%TO.N,Net-(D30-A)*%
X131500000Y-275380000D03*
%TD*%
D16*
%TO.P,D34,1,K*%
%TO.N,row3*%
X207925000Y-282350000D03*
D17*
%TO.P,D34,2,A*%
%TO.N,Net-(D34-A)*%
X207925000Y-274730000D03*
%TD*%
D16*
%TO.P,D73,1,K*%
%TO.N,row6*%
X302860000Y-339820000D03*
D17*
%TO.P,D73,2,A*%
%TO.N,Net-(D73-A)*%
X302860000Y-332200000D03*
%TD*%
D16*
%TO.P,D33,1,K*%
%TO.N,row3*%
X188825000Y-282475000D03*
D17*
%TO.P,D33,2,A*%
%TO.N,Net-(D33-A)*%
X188825000Y-274855000D03*
%TD*%
D16*
%TO.P,D51,1,K*%
%TO.N,row4*%
X270175000Y-302225000D03*
D17*
%TO.P,D51,2,A*%
%TO.N,Net-(D51-A)*%
X270175000Y-294605000D03*
%TD*%
D16*
%TO.P,D61,1,K*%
%TO.N,row5*%
X221575000Y-321775000D03*
D17*
%TO.P,D61,2,A*%
%TO.N,Net-(D61-A)*%
X221575000Y-314155000D03*
%TD*%
D16*
%TO.P,D29,1,K*%
%TO.N,row3*%
X112150000Y-282750000D03*
D17*
%TO.P,D29,2,A*%
%TO.N,Net-(D29-A)*%
X112150000Y-275130000D03*
%TD*%
D16*
%TO.P,D79,1,K*%
%TO.N,row1*%
X418760000Y-234080000D03*
D17*
%TO.P,D79,2,A*%
%TO.N,Net-(D79-A)*%
X418760000Y-226460000D03*
%TD*%
D16*
%TO.P,D43,1,K*%
%TO.N,row4*%
X116550000Y-303150000D03*
D17*
%TO.P,D43,2,A*%
%TO.N,Net-(D43-A)*%
X116550000Y-295530000D03*
%TD*%
D16*
%TO.P,D35,1,K*%
%TO.N,row3*%
X227150000Y-282750000D03*
D17*
%TO.P,D35,2,A*%
%TO.N,Net-(D35-A)*%
X227150000Y-275130000D03*
%TD*%
D20*
%TO.N,GND*%
X398120000Y-229390000D03*
%TO.N,row1*%
X86100000Y-238330000D03*
%TO.N,row2*%
X362950000Y-262010000D03*
X357100000Y-275730000D03*
%TO.N,row3*%
X353530000Y-274270000D03*
X372160000Y-239020000D03*
X366290000Y-259400000D03*
%TO.N,col1*%
X76410000Y-245600000D03*
%TO.N,col2*%
X366660000Y-264770000D03*
X370830000Y-262610000D03*
%TO.N,col3*%
X119130000Y-246960000D03*
%TO.N,col4*%
X143740000Y-235750000D03*
%TO.N,col5*%
X156700000Y-251510000D03*
%TO.N,col7*%
X359610000Y-313290000D03*
%TO.N,col8*%
X344560000Y-326110000D03*
X234570000Y-325540000D03*
X359500000Y-316290000D03*
%TO.N,col9*%
X360680000Y-305580000D03*
X366200000Y-305580424D03*
X358230000Y-305730000D03*
%TO.N,col10*%
X356280000Y-315030000D03*
X290830000Y-249820000D03*
X374850000Y-317100000D03*
%TO.N,col11*%
X285620000Y-249340000D03*
X366290000Y-257560000D03*
X287540000Y-234730000D03*
X373690000Y-267300000D03*
X371060000Y-241760000D03*
%TO.N,col12*%
X300280000Y-262600000D03*
X338381000Y-234110000D03*
%TO.N,col13*%
X354660000Y-317090000D03*
X319310000Y-261630000D03*
%TO.N,col14*%
X374879000Y-253951000D03*
X396480000Y-254590000D03*
%TO.N,enc1*%
X364230000Y-245860000D03*
%TO.N,enc2*%
X362830000Y-241810000D03*
%TO.N,row4*%
X357170000Y-277910000D03*
X360750000Y-275550000D03*
%TD*%
D21*
%TO.N,GND*%
X395230000Y-224870000D02*
X394069000Y-223709000D01*
X393787760Y-228672240D02*
X393780000Y-228680000D01*
X393780000Y-226320000D02*
X395230000Y-224870000D01*
X375000000Y-224860000D02*
X359850000Y-224860000D01*
X375180000Y-225040000D02*
X375000000Y-224860000D01*
X398120000Y-229390000D02*
X397402240Y-228672240D01*
X393780000Y-228680000D02*
X393780000Y-226320000D01*
X376511000Y-223709000D02*
X375180000Y-225040000D01*
X394069000Y-223709000D02*
X376511000Y-223709000D01*
X397402240Y-228672240D02*
X393787760Y-228672240D01*
%TO.N,+5V*%
X361239000Y-221169000D02*
X393831000Y-221169000D01*
X396381000Y-223719000D02*
X396381000Y-226259000D01*
X396381000Y-226259000D02*
X395230000Y-227410000D01*
X359850000Y-219780000D02*
X361239000Y-221169000D01*
X393831000Y-221169000D02*
X396381000Y-223719000D01*
%TO.N,row1*%
X312475000Y-235125000D02*
X331300000Y-235125000D01*
X293300000Y-235350000D02*
X312250000Y-235350000D01*
X159250000Y-236095000D02*
X292555000Y-236095000D01*
X121700000Y-235975000D02*
X121275000Y-235550000D01*
X156040000Y-241340000D02*
X156040000Y-241180000D01*
X143070000Y-241340000D02*
X156040000Y-241340000D01*
X159250000Y-237970000D02*
X159250000Y-236095000D01*
X86100000Y-238330000D02*
X88880000Y-235550000D01*
X140675000Y-235975000D02*
X140675000Y-238945000D01*
X312250000Y-235350000D02*
X312475000Y-235125000D01*
X88880000Y-235550000D02*
X121275000Y-235550000D01*
X140675000Y-238945000D02*
X143070000Y-241340000D01*
X350425000Y-235250000D02*
X350650000Y-235475000D01*
X292555000Y-236095000D02*
X293300000Y-235350000D01*
X140675000Y-235975000D02*
X121700000Y-235975000D01*
X331425000Y-235250000D02*
X350425000Y-235250000D01*
X156040000Y-241180000D02*
X159250000Y-237970000D01*
X331300000Y-235125000D02*
X331425000Y-235250000D01*
%TO.N,Net-(D1-A)*%
X83500000Y-228480000D02*
X71015000Y-228480000D01*
X71015000Y-228480000D02*
X70085000Y-229410000D01*
%TO.N,Net-(D2-A)*%
X107935000Y-229460000D02*
X119745000Y-229460000D01*
X119745000Y-229460000D02*
X121275000Y-227930000D01*
%TO.N,Net-(D3-A)*%
X139720000Y-229310000D02*
X140675000Y-228355000D01*
X127060000Y-229310000D02*
X139720000Y-229310000D01*
%TO.N,Net-(D5-A)*%
X165090000Y-229360000D02*
X177695000Y-229360000D01*
X177695000Y-229360000D02*
X178425000Y-228630000D01*
%TO.N,Net-(D6-A)*%
X194665000Y-229260000D02*
X207270000Y-229260000D01*
X207270000Y-229260000D02*
X207850000Y-228680000D01*
%TO.N,Net-(D7-A)*%
X225820000Y-229335000D02*
X227025000Y-228130000D01*
X213665000Y-229335000D02*
X225820000Y-229335000D01*
%TO.N,Net-(D8-A)*%
X232845000Y-229385000D02*
X245245000Y-229385000D01*
X245245000Y-229385000D02*
X246350000Y-228280000D01*
%TO.N,Net-(D9-A)*%
X251965000Y-229410000D02*
X264370000Y-229410000D01*
X264370000Y-229410000D02*
X265375000Y-228405000D01*
%TO.N,Net-(D10-A)*%
X279740000Y-229210000D02*
X291820000Y-229210000D01*
X291820000Y-229210000D02*
X293300000Y-227730000D01*
%TO.N,Net-(D11-A)*%
X298890000Y-229210000D02*
X310770000Y-229210000D01*
X310770000Y-229210000D02*
X312475000Y-227505000D01*
%TO.N,Net-(D13-A)*%
X337260000Y-229210000D02*
X349295000Y-229210000D01*
X349295000Y-229210000D02*
X350650000Y-227855000D01*
%TO.N,Net-(D14-A)*%
X83400000Y-256205000D02*
X81770000Y-257835000D01*
X81770000Y-257835000D02*
X70110000Y-257835000D01*
%TO.N,row2*%
X362950000Y-271790000D02*
X362950000Y-262010000D01*
X359010000Y-275730000D02*
X362950000Y-271790000D01*
X362950000Y-262010000D02*
X362950000Y-261900000D01*
X357100000Y-275730000D02*
X359010000Y-275730000D01*
%TO.N,Net-(D17-A)*%
X126940000Y-257660000D02*
X130881000Y-253719000D01*
X130881000Y-253719000D02*
X138239000Y-253719000D01*
X138239000Y-253719000D02*
X140700000Y-256180000D01*
%TO.N,Net-(D25-A)*%
X279740000Y-257642500D02*
X291787500Y-257642500D01*
X291787500Y-257642500D02*
X293100000Y-256330000D01*
%TO.N,Net-(D26-A)*%
X310860000Y-257720000D02*
X312275000Y-256305000D01*
X298750000Y-257720000D02*
X310860000Y-257720000D01*
%TO.N,row3*%
X360959000Y-264111000D02*
X356899000Y-264111000D01*
X353530000Y-267480000D02*
X353530000Y-274270000D01*
X366290000Y-259400000D02*
X361790000Y-259400000D01*
X361660000Y-263410000D02*
X360959000Y-264111000D01*
X372160000Y-239020000D02*
X372160000Y-232870000D01*
X361660000Y-259530000D02*
X361660000Y-263410000D01*
X372160000Y-232870000D02*
X377630000Y-227400000D01*
X356899000Y-264111000D02*
X353530000Y-267480000D01*
X361790000Y-259400000D02*
X361660000Y-259530000D01*
%TO.N,Net-(D28-A)*%
X74865000Y-276935000D02*
X90845000Y-276935000D01*
X90845000Y-276935000D02*
X92825000Y-274955000D01*
%TO.N,Net-(D29-A)*%
X98715000Y-276760000D02*
X110520000Y-276760000D01*
X110520000Y-276760000D02*
X112150000Y-275130000D01*
%TO.N,Net-(D42-A)*%
X77240000Y-295935000D02*
X96595000Y-295935000D01*
X96595000Y-295935000D02*
X97800000Y-294730000D01*
%TO.N,Net-(D55-A)*%
X81840000Y-315135000D02*
X82445000Y-314530000D01*
X82445000Y-314530000D02*
X106975000Y-314530000D01*
%TO.N,Net-(D56-A)*%
X126370000Y-315085000D02*
X126450000Y-315005000D01*
X112815000Y-315085000D02*
X126370000Y-315085000D01*
%TO.N,col1*%
X381570000Y-244870000D02*
X381260000Y-245180000D01*
X236280000Y-243230000D02*
X236841000Y-243791000D01*
X381260000Y-245180000D02*
X377630000Y-245180000D01*
X374177000Y-243791000D02*
X376479000Y-241489000D01*
X381570000Y-241780000D02*
X381570000Y-244870000D01*
X236841000Y-243791000D02*
X374177000Y-243791000D01*
X76410000Y-245600000D02*
X78780000Y-243230000D01*
X78780000Y-243230000D02*
X236280000Y-243230000D01*
X376479000Y-241489000D02*
X381279000Y-241489000D01*
X381279000Y-241489000D02*
X381570000Y-241780000D01*
%TO.N,col2*%
X366660000Y-264770000D02*
X368670000Y-264770000D01*
X368670000Y-264770000D02*
X370830000Y-262610000D01*
%TO.N,col3*%
X128780000Y-301910000D02*
X128780000Y-302965000D01*
X119130000Y-246960000D02*
X119130000Y-250300000D01*
X119130000Y-250300000D02*
X114760000Y-254670000D01*
X114760000Y-254670000D02*
X114760000Y-264865000D01*
X114760000Y-264865000D02*
X124165000Y-274270000D01*
X138530000Y-319460000D02*
X126420000Y-331570000D01*
X124165000Y-288025000D02*
X128825000Y-292685000D01*
X357137000Y-249109000D02*
X373939000Y-249109000D01*
X128825000Y-301865000D02*
X128780000Y-301910000D01*
X124165000Y-274270000D02*
X124165000Y-288025000D01*
X373939000Y-249109000D02*
X377630000Y-252800000D01*
X128780000Y-302965000D02*
X138530000Y-312715000D01*
X138530000Y-312715000D02*
X138530000Y-319460000D01*
X128825000Y-292685000D02*
X128825000Y-301865000D01*
X119130000Y-246960000D02*
X354988000Y-246960000D01*
X354988000Y-246960000D02*
X357137000Y-249109000D01*
%TO.N,col4*%
X147965000Y-291445000D02*
X143385000Y-286865000D01*
X380070000Y-255340000D02*
X399000000Y-236410000D01*
X146800000Y-234000000D02*
X145490000Y-234000000D01*
X133290000Y-255120000D02*
X133910000Y-255740000D01*
X133910000Y-264880000D02*
X143270000Y-274240000D01*
X147965000Y-302015000D02*
X147965000Y-293435000D01*
X133910000Y-255740000D02*
X133910000Y-264880000D01*
X143385000Y-286865000D02*
X143385000Y-274195000D01*
X147719000Y-230956184D02*
X147719000Y-231721000D01*
X157490000Y-324320000D02*
X157490000Y-312520000D01*
X399000000Y-218431000D02*
X153149000Y-218431000D01*
X157490000Y-311540000D02*
X147965000Y-302015000D01*
X149861000Y-229579000D02*
X149096184Y-229579000D01*
X150270000Y-331540000D02*
X157490000Y-324320000D01*
X153149000Y-218431000D02*
X152365000Y-219215000D01*
X152365000Y-227075000D02*
X149861000Y-229579000D01*
X152365000Y-219215000D02*
X152365000Y-227075000D01*
X377630000Y-255340000D02*
X380070000Y-255340000D01*
X145490000Y-234000000D02*
X143740000Y-235750000D01*
X147719000Y-231721000D02*
X146800000Y-232640000D01*
X157490000Y-312520000D02*
X157490000Y-311540000D01*
X146800000Y-232640000D02*
X146800000Y-234000000D01*
X149096184Y-229579000D02*
X147719000Y-230956184D01*
X399000000Y-236410000D02*
X399000000Y-218431000D01*
X147965000Y-293435000D02*
X147965000Y-291445000D01*
%TO.N,col5*%
X162690000Y-286140000D02*
X162690000Y-274325000D01*
X167000000Y-291610000D02*
X162110000Y-286720000D01*
X162110000Y-286720000D02*
X162690000Y-286140000D01*
X176610000Y-312510000D02*
X168090000Y-303990000D01*
X240320000Y-350100000D02*
X221770000Y-331550000D01*
X162380000Y-274220000D02*
X153970000Y-265810000D01*
X167000000Y-303120000D02*
X167000000Y-291610000D01*
X180770000Y-312510000D02*
X176610000Y-312510000D01*
X364980000Y-264450000D02*
X364980000Y-315640000D01*
X153970000Y-265810000D02*
X153040000Y-265810000D01*
X152870000Y-265640000D02*
X152870000Y-254540000D01*
X356470000Y-324150000D02*
X356470000Y-350100000D01*
X153040000Y-265810000D02*
X152870000Y-265640000D01*
X168090000Y-303990000D02*
X167870000Y-303990000D01*
X221770000Y-331550000D02*
X199810000Y-331550000D01*
X199810000Y-331550000D02*
X180770000Y-312510000D01*
X364980000Y-315640000D02*
X356470000Y-324150000D01*
X152870000Y-254540000D02*
X155900000Y-251510000D01*
X371390000Y-258040000D02*
X364980000Y-264450000D01*
X155900000Y-251510000D02*
X156700000Y-251510000D01*
X377630000Y-257880000D02*
X377470000Y-258040000D01*
X377470000Y-258040000D02*
X371390000Y-258040000D01*
X167870000Y-303990000D02*
X167000000Y-303120000D01*
X356470000Y-350100000D02*
X240320000Y-350100000D01*
%TO.N,col6*%
X186845000Y-303780000D02*
X186430000Y-303780000D01*
X171950000Y-264690000D02*
X181480000Y-274220000D01*
X186240000Y-291090000D02*
X181620000Y-286470000D01*
X371271000Y-256729000D02*
X363920000Y-264080000D01*
X186240000Y-303590000D02*
X186240000Y-291090000D01*
X377630000Y-260420000D02*
X382030000Y-260420000D01*
X296060000Y-331560000D02*
X293435000Y-331560000D01*
X354580000Y-349090000D02*
X299550000Y-349090000D01*
X292315000Y-330440000D02*
X273470000Y-330440000D01*
X382460000Y-258608000D02*
X380581000Y-256729000D01*
X264860000Y-332420000D02*
X260620000Y-328180000D01*
X293435000Y-331560000D02*
X292315000Y-330440000D01*
X196080000Y-321230000D02*
X196080000Y-313015000D01*
X354580000Y-324350000D02*
X354580000Y-349090000D01*
X171950000Y-255555000D02*
X171950000Y-264690000D01*
X271490000Y-332420000D02*
X264860000Y-332420000D01*
X186430000Y-303780000D02*
X186240000Y-303590000D01*
X203030000Y-328180000D02*
X196080000Y-321230000D01*
X380581000Y-256729000D02*
X371271000Y-256729000D01*
X363920000Y-315010000D02*
X354580000Y-324350000D01*
X260620000Y-328180000D02*
X203030000Y-328180000D01*
X181620000Y-286470000D02*
X181620000Y-274580000D01*
X382460000Y-260100000D02*
X382460000Y-258608000D01*
X363920000Y-264080000D02*
X363920000Y-315010000D01*
X273470000Y-330440000D02*
X271490000Y-332420000D01*
X299530000Y-349070000D02*
X299530000Y-335030000D01*
X196080000Y-313015000D02*
X186845000Y-303780000D01*
X382350000Y-260100000D02*
X382460000Y-260100000D01*
X181620000Y-274580000D02*
X181840000Y-274360000D01*
X171440000Y-255045000D02*
X171950000Y-255555000D01*
X382030000Y-260420000D02*
X382350000Y-260100000D01*
X299530000Y-335030000D02*
X296060000Y-331560000D01*
%TO.N,col7*%
X329136100Y-319683900D02*
X317310000Y-331510000D01*
X215030000Y-312940000D02*
X205830000Y-303740000D01*
X272620000Y-328890000D02*
X271070000Y-327340000D01*
X359610000Y-313290000D02*
X353216100Y-319683900D01*
X200240000Y-274520000D02*
X200240000Y-288800000D01*
X223800000Y-327340000D02*
X215030000Y-318570000D01*
X205830000Y-302420000D02*
X205445000Y-302035000D01*
X311660000Y-331510000D02*
X309040000Y-328890000D01*
X191150000Y-255630000D02*
X191150000Y-264750000D01*
X190540000Y-255020000D02*
X191150000Y-255630000D01*
X271070000Y-327340000D02*
X223800000Y-327340000D01*
X205830000Y-303740000D02*
X205830000Y-302420000D01*
X215030000Y-318570000D02*
X215030000Y-312940000D01*
X353216100Y-319683900D02*
X329136100Y-319683900D01*
X309040000Y-328890000D02*
X272620000Y-328890000D01*
X359610000Y-313290000D02*
X359660000Y-313240000D01*
X191150000Y-264750000D02*
X200670000Y-274270000D01*
X205445000Y-302035000D02*
X205445000Y-293430000D01*
X200240000Y-288800000D02*
X205010000Y-293570000D01*
X317310000Y-331510000D02*
X311660000Y-331510000D01*
%TO.N,col8*%
X220065000Y-286135000D02*
X220065000Y-274385000D01*
X341110000Y-331520000D02*
X341250000Y-331520000D01*
X209640000Y-265540000D02*
X209640000Y-255077500D01*
X224545000Y-293455000D02*
X219480000Y-288390000D01*
X341250000Y-331520000D02*
X341620000Y-331150000D01*
X344560000Y-326110000D02*
X349680000Y-326110000D01*
X224545000Y-303155000D02*
X224545000Y-293455000D01*
X233800000Y-312410000D02*
X224545000Y-303155000D01*
X219790000Y-274270000D02*
X211400000Y-265880000D01*
X219480000Y-288390000D02*
X219480000Y-286720000D01*
X349680000Y-326110000D02*
X359500000Y-316290000D01*
X211400000Y-265880000D02*
X209980000Y-265880000D01*
X219480000Y-286720000D02*
X220065000Y-286135000D01*
X234570000Y-325540000D02*
X233800000Y-324770000D01*
X233800000Y-324770000D02*
X233800000Y-312410000D01*
X209980000Y-265880000D02*
X209640000Y-265540000D01*
%TO.N,col9*%
X243695000Y-293530000D02*
X243695000Y-291185000D01*
X252900000Y-312410000D02*
X243695000Y-303205000D01*
X366200000Y-322740000D02*
X366960000Y-323500000D01*
X228782400Y-265207600D02*
X228782400Y-255052500D01*
X228400000Y-265590000D02*
X228782400Y-265207600D01*
X360530000Y-305730000D02*
X358230000Y-305730000D01*
X243695000Y-291185000D02*
X239190000Y-286680000D01*
X366960000Y-331620000D02*
X366960000Y-323500000D01*
X238860000Y-274370000D02*
X237180000Y-274370000D01*
X243695000Y-303205000D02*
X243695000Y-293530000D01*
X360680000Y-305580000D02*
X360530000Y-305730000D01*
X366200000Y-305580424D02*
X366200000Y-322740000D01*
X239190000Y-286680000D02*
X239190000Y-274385000D01*
X237180000Y-274370000D02*
X228400000Y-265590000D01*
%TO.N,col10*%
X258215000Y-288345000D02*
X258215000Y-274385000D01*
X247895000Y-265435000D02*
X247895000Y-255077500D01*
X257880000Y-274420000D02*
X249050000Y-265590000D01*
X310370000Y-249820000D02*
X338630000Y-278080000D01*
X356960000Y-265500000D02*
X359850000Y-265500000D01*
X249050000Y-265590000D02*
X247910000Y-265590000D01*
X272000000Y-312410000D02*
X262800000Y-303210000D01*
X262800000Y-293480000D02*
X258980000Y-289660000D01*
X247910000Y-265450000D02*
X247895000Y-265435000D01*
X356280000Y-315030000D02*
X356280000Y-278080000D01*
X374850000Y-320520000D02*
X374850000Y-317100000D01*
X258980000Y-289660000D02*
X258980000Y-289110000D01*
X385800000Y-331470000D02*
X374850000Y-320520000D01*
X262800000Y-303210000D02*
X262800000Y-293480000D01*
X356280000Y-266180000D02*
X356960000Y-265500000D01*
X356280000Y-278080000D02*
X356280000Y-266180000D01*
X338630000Y-278080000D02*
X356280000Y-278080000D01*
X247910000Y-265590000D02*
X247910000Y-265450000D01*
X290830000Y-249820000D02*
X310370000Y-249820000D01*
X258980000Y-289110000D02*
X258215000Y-288345000D01*
%TO.N,col11*%
X290570000Y-234730000D02*
X287540000Y-234730000D01*
X371060000Y-238660000D02*
X371060000Y-241760000D01*
X268980000Y-266390000D02*
X267640000Y-266390000D01*
X310480000Y-221430000D02*
X349120000Y-221430000D01*
X291330000Y-233970000D02*
X290570000Y-234730000D01*
X305240000Y-226670000D02*
X310480000Y-221430000D01*
X290990000Y-312450000D02*
X281700000Y-303160000D01*
X411420000Y-325300000D02*
X405060000Y-331660000D01*
X373690000Y-278043000D02*
X411420000Y-315773000D01*
X285620000Y-249340000D02*
X285620000Y-251520000D01*
X277980000Y-289760000D02*
X277980000Y-288350000D01*
X277390000Y-287760000D02*
X277390000Y-274385000D01*
X356241000Y-228551000D02*
X360951000Y-228551000D01*
X361360000Y-228960000D02*
X371060000Y-238660000D01*
X267640000Y-266390000D02*
X266965000Y-265715000D01*
X305240000Y-226670000D02*
X298630000Y-226670000D01*
X281700000Y-293480000D02*
X277980000Y-289760000D01*
X411420000Y-315773000D02*
X411420000Y-325300000D01*
X281700000Y-303160000D02*
X281700000Y-293480000D01*
X285620000Y-251520000D02*
X281830000Y-255310000D01*
X349120000Y-221430000D02*
X356241000Y-228551000D01*
X266965000Y-265715000D02*
X266965000Y-255077500D01*
X359850000Y-260420000D02*
X362710000Y-257560000D01*
X281830000Y-255310000D02*
X281597500Y-255077500D01*
X298630000Y-226670000D02*
X291330000Y-233970000D01*
X373690000Y-267300000D02*
X373690000Y-278043000D01*
X277980000Y-288350000D02*
X277390000Y-287760000D01*
X281597500Y-255077500D02*
X266965000Y-255077500D01*
X362710000Y-257560000D02*
X366290000Y-257560000D01*
X276960000Y-274370000D02*
X268980000Y-266390000D01*
X360951000Y-228551000D02*
X361360000Y-228960000D01*
%TO.N,col12*%
X310940000Y-303640000D02*
X300790000Y-293490000D01*
X326840000Y-312500000D02*
X317980000Y-303640000D01*
X324731160Y-226670000D02*
X332171160Y-234110000D01*
X300280000Y-270570000D02*
X300280000Y-262600000D01*
X324415000Y-226670000D02*
X324731160Y-226670000D01*
X296465000Y-287035000D02*
X296465000Y-274385000D01*
X317980000Y-303640000D02*
X310940000Y-303640000D01*
X332171160Y-234110000D02*
X338381000Y-234110000D01*
X300790000Y-291360000D02*
X296465000Y-287035000D01*
X296465000Y-274385000D02*
X300280000Y-270570000D01*
X300790000Y-293490000D02*
X300790000Y-291360000D01*
%TO.N,col13*%
X333035634Y-293360000D02*
X331480000Y-293360000D01*
X329430000Y-291310000D02*
X329430000Y-291170000D01*
X331480000Y-293360000D02*
X329430000Y-291310000D01*
X354660000Y-317090000D02*
X354660000Y-314984366D01*
X319350000Y-261590000D02*
X319310000Y-261630000D01*
X326150000Y-291170000D02*
X315650000Y-280670000D01*
X354660000Y-314984366D02*
X333035634Y-293360000D01*
X315650000Y-280670000D02*
X315650000Y-274240000D01*
X329430000Y-291170000D02*
X326150000Y-291170000D01*
X319310000Y-261630000D02*
X315650000Y-265290000D01*
X315650000Y-265290000D02*
X315650000Y-274240000D01*
%TO.N,col14*%
X396480000Y-254590000D02*
X413080000Y-237990000D01*
X348913065Y-252800000D02*
X341843065Y-259870000D01*
X421900000Y-232390000D02*
X416410000Y-226900000D01*
X374879000Y-253951000D02*
X361001000Y-253951000D01*
X341843065Y-259870000D02*
X338550000Y-259870000D01*
X413080000Y-237720000D02*
X421900000Y-237720000D01*
X421900000Y-237720000D02*
X421900000Y-232390000D01*
X359850000Y-252800000D02*
X348913065Y-252800000D01*
X338550000Y-274290000D02*
X338550000Y-259870000D01*
X413080000Y-237990000D02*
X413080000Y-237720000D01*
X361001000Y-253951000D02*
X359850000Y-252800000D01*
X338550000Y-259870000D02*
X333810000Y-255130000D01*
%TO.N,enc1*%
X364110000Y-245860000D02*
X362250000Y-247720000D01*
X364230000Y-245860000D02*
X364110000Y-245860000D01*
X362250000Y-247720000D02*
X359850000Y-247720000D01*
%TO.N,enc2*%
X359850000Y-242640000D02*
X362000000Y-242640000D01*
X362000000Y-242640000D02*
X362830000Y-241810000D01*
%TO.N,row4*%
X357170000Y-277910000D02*
X358390000Y-277910000D01*
X358390000Y-277910000D02*
X360750000Y-275550000D01*
%TD*%
M02*
