%TF.GenerationSoftware,KiCad,Pcbnew,9.0.2*%
%TF.CreationDate,2025-06-22T22:51:19+05:30*%
%TF.ProjectId,hackboard,6861636b-626f-4617-9264-2e6b69636164,rev?*%
%TF.SameCoordinates,Original*%
%TF.FileFunction,Soldermask,Top*%
%TF.FilePolarity,Negative*%
%FSLAX46Y46*%
G04 Gerber Fmt 4.6, Leading zero omitted, Abs format (unit mm)*
G04 Created by KiCad (PCBNEW 9.0.2) date 2025-06-22 22:51:19*
%MOMM*%
%LPD*%
G01*
G04 APERTURE LIST*
G04 Aperture macros list*
%AMRoundRect*
0 Rectangle with rounded corners*
0 $1 Rounding radius*
0 $2 $3 $4 $5 $6 $7 $8 $9 X,Y pos of 4 corners*
0 Add a 4 corners polygon primitive as box body*
4,1,4,$2,$3,$4,$5,$6,$7,$8,$9,$2,$3,0*
0 Add four circle primitives for the rounded corners*
1,1,$1+$1,$2,$3*
1,1,$1+$1,$4,$5*
1,1,$1+$1,$6,$7*
1,1,$1+$1,$8,$9*
0 Add four rect primitives between the rounded corners*
20,1,$1+$1,$2,$3,$4,$5,0*
20,1,$1+$1,$4,$5,$6,$7,0*
20,1,$1+$1,$6,$7,$8,$9,0*
20,1,$1+$1,$8,$9,$2,$3,0*%
G04 Aperture macros list end*
%ADD10C,1.700000*%
%ADD11C,4.000000*%
%ADD12C,2.200000*%
%ADD13C,3.050000*%
%ADD14R,1.700000X1.700000*%
%ADD15O,1.700000X1.700000*%
%ADD16R,2.000000X2.000000*%
%ADD17C,2.000000*%
%ADD18C,3.200000*%
%ADD19RoundRect,0.250000X0.550000X-0.550000X0.550000X0.550000X-0.550000X0.550000X-0.550000X-0.550000X0*%
%ADD20C,1.600000*%
%ADD21O,1.800000X1.800000*%
%ADD22O,1.500000X1.500000*%
G04 APERTURE END LIST*
D10*
%TO.C,SW44*%
X121205000Y-298620000D03*
D11*
X126285000Y-298620000D03*
D10*
X131365000Y-298620000D03*
D12*
X128825000Y-293540000D03*
X122475000Y-296080000D03*
%TD*%
D10*
%TO.C,SW43*%
X102170000Y-298620000D03*
D11*
X107250000Y-298620000D03*
D10*
X112330000Y-298620000D03*
D12*
X109790000Y-293540000D03*
X103440000Y-296080000D03*
%TD*%
D10*
%TO.C,SW52*%
X273600000Y-298620000D03*
D11*
X278680000Y-298620000D03*
D10*
X283760000Y-298620000D03*
D12*
X281220000Y-293540000D03*
X274870000Y-296080000D03*
%TD*%
D10*
%TO.C,SW22*%
X221260000Y-260520000D03*
D11*
X226340000Y-260520000D03*
D10*
X231420000Y-260520000D03*
D12*
X228880000Y-255440000D03*
X222530000Y-257980000D03*
%TD*%
D10*
%TO.C,SW18*%
X145040000Y-260520000D03*
D11*
X150120000Y-260520000D03*
D10*
X155200000Y-260520000D03*
D12*
X152660000Y-255440000D03*
X146310000Y-257980000D03*
%TD*%
D10*
%TO.C,SW39*%
X287890000Y-279580000D03*
D11*
X292970000Y-279580000D03*
D10*
X298050000Y-279580000D03*
D12*
X295510000Y-274500000D03*
X289160000Y-277040000D03*
%TD*%
D10*
%TO.C,SW74*%
X309300000Y-336740000D03*
D11*
X314380000Y-336740000D03*
D10*
X319460000Y-336740000D03*
D12*
X316920000Y-331660000D03*
X310570000Y-334200000D03*
%TD*%
D10*
%TO.C,SW42*%
X75980000Y-298640000D03*
D11*
X81060000Y-298640000D03*
D10*
X86140000Y-298640000D03*
D12*
X83600000Y-293560000D03*
X77250000Y-296100000D03*
%TD*%
D13*
%TO.C,SW27*%
X319200000Y-253540000D03*
D11*
X319200000Y-268780000D03*
D10*
X326020000Y-260540000D03*
D11*
X331100000Y-260540000D03*
D10*
X336180000Y-260540000D03*
D13*
X343000000Y-253540000D03*
D11*
X343000000Y-268780000D03*
D12*
X333640000Y-255460000D03*
X327290000Y-258000000D03*
%TD*%
D10*
%TO.C,SW26*%
X297400000Y-260530000D03*
D11*
X302480000Y-260530000D03*
D10*
X307560000Y-260530000D03*
D12*
X305020000Y-255450000D03*
X298670000Y-257990000D03*
%TD*%
D10*
%TO.C,SW68*%
X71190000Y-336790000D03*
D11*
X76270000Y-336790000D03*
D10*
X81350000Y-336790000D03*
D12*
X78810000Y-331710000D03*
X72460000Y-334250000D03*
%TD*%
D10*
%TO.C,SW37*%
X249730000Y-279610000D03*
D11*
X254810000Y-279610000D03*
D10*
X259890000Y-279610000D03*
D12*
X257350000Y-274530000D03*
X251000000Y-277070000D03*
%TD*%
D10*
%TO.C,SW49*%
X216490000Y-298630000D03*
D11*
X221570000Y-298630000D03*
D10*
X226650000Y-298630000D03*
D12*
X224110000Y-293550000D03*
X217760000Y-296090000D03*
%TD*%
D14*
%TO.C,Brd1*%
X395230000Y-224870000D03*
D15*
X395230000Y-227410000D03*
X395230000Y-229950000D03*
X395230000Y-232490000D03*
%TD*%
D10*
%TO.C,SW47*%
X178360000Y-298620000D03*
D11*
X183440000Y-298620000D03*
D10*
X188520000Y-298620000D03*
D12*
X185980000Y-293540000D03*
X179630000Y-296080000D03*
%TD*%
D10*
%TO.C,SW45*%
X140260000Y-298650000D03*
D11*
X145340000Y-298650000D03*
D10*
X150420000Y-298650000D03*
D12*
X147880000Y-293570000D03*
X141530000Y-296110000D03*
%TD*%
D10*
%TO.C,SW34*%
X192620000Y-279600000D03*
D11*
X197700000Y-279600000D03*
D10*
X202780000Y-279600000D03*
D12*
X200240000Y-274520000D03*
X193890000Y-277060000D03*
%TD*%
D10*
%TO.C,SW12*%
X316500000Y-231970000D03*
D11*
X321580000Y-231970000D03*
D10*
X326660000Y-231970000D03*
D12*
X324120000Y-226890000D03*
X317770000Y-229430000D03*
%TD*%
D10*
%TO.C,SW10*%
X278340000Y-231940000D03*
D11*
X283420000Y-231940000D03*
D10*
X288500000Y-231940000D03*
D12*
X285960000Y-226860000D03*
X279610000Y-229400000D03*
%TD*%
D10*
%TO.C,SW4*%
X144990000Y-231930000D03*
D11*
X150070000Y-231930000D03*
D10*
X155150000Y-231930000D03*
D12*
X152610000Y-226850000D03*
X146260000Y-229390000D03*
%TD*%
D10*
%TO.C,SW32*%
X154530000Y-279590000D03*
D11*
X159610000Y-279590000D03*
D10*
X164690000Y-279590000D03*
D12*
X162150000Y-274510000D03*
X155800000Y-277050000D03*
%TD*%
D10*
%TO.C,SW35*%
X211690000Y-279600000D03*
D11*
X216770000Y-279600000D03*
D10*
X221850000Y-279600000D03*
D12*
X219310000Y-274520000D03*
X212960000Y-277060000D03*
%TD*%
D10*
%TO.C,SW58*%
X149780000Y-317700000D03*
D11*
X154860000Y-317700000D03*
D10*
X159940000Y-317700000D03*
D12*
X157400000Y-312620000D03*
X151050000Y-315160000D03*
%TD*%
D10*
%TO.C,SW16*%
X106960000Y-260490000D03*
D11*
X112040000Y-260490000D03*
D10*
X117120000Y-260490000D03*
D12*
X114580000Y-255410000D03*
X108230000Y-257950000D03*
%TD*%
D10*
%TO.C,SW59*%
X168830000Y-317670000D03*
D11*
X173910000Y-317670000D03*
D10*
X178990000Y-317670000D03*
D12*
X176450000Y-312590000D03*
X170100000Y-315130000D03*
%TD*%
D10*
%TO.C,SW78*%
X397440000Y-336740000D03*
D11*
X402520000Y-336740000D03*
D10*
X407600000Y-336740000D03*
D12*
X405060000Y-331660000D03*
X398710000Y-334200000D03*
%TD*%
D10*
%TO.C,SW7*%
X211740000Y-232000000D03*
D11*
X216820000Y-232000000D03*
D10*
X221900000Y-232000000D03*
D12*
X219360000Y-226920000D03*
X213010000Y-229460000D03*
%TD*%
D10*
%TO.C,SW6*%
X192650000Y-231910000D03*
D11*
X197730000Y-231910000D03*
D10*
X202810000Y-231910000D03*
D12*
X200270000Y-226830000D03*
X193920000Y-229370000D03*
%TD*%
D10*
%TO.C,SW19*%
X164070000Y-260520000D03*
D11*
X169150000Y-260520000D03*
D10*
X174230000Y-260520000D03*
D12*
X171690000Y-255440000D03*
X165340000Y-257980000D03*
%TD*%
D10*
%TO.C,SW28*%
X73570000Y-279580000D03*
D11*
X78650000Y-279580000D03*
D10*
X83730000Y-279580000D03*
D12*
X81190000Y-274500000D03*
X74840000Y-277040000D03*
%TD*%
D10*
%TO.C,SW23*%
X240300000Y-260560000D03*
D11*
X245380000Y-260560000D03*
D10*
X250460000Y-260560000D03*
D12*
X247920000Y-255480000D03*
X241570000Y-258020000D03*
%TD*%
D10*
%TO.C,SW2*%
X106980000Y-231950000D03*
D11*
X112060000Y-231950000D03*
D10*
X117140000Y-231950000D03*
D12*
X114600000Y-226870000D03*
X108250000Y-229410000D03*
%TD*%
D13*
%TO.C,SW72*%
X169140000Y-329740000D03*
D11*
X169140000Y-344980000D03*
D10*
X214060000Y-336740000D03*
D11*
X219140000Y-336740000D03*
D10*
X224220000Y-336740000D03*
D13*
X269140000Y-329740000D03*
D11*
X269140000Y-344980000D03*
D12*
X221680000Y-331660000D03*
X215330000Y-334200000D03*
%TD*%
D13*
%TO.C,SW55*%
X73910000Y-310700000D03*
D11*
X73910000Y-325940000D03*
D10*
X80730000Y-317700000D03*
D11*
X85810000Y-317700000D03*
D10*
X90890000Y-317700000D03*
D13*
X97710000Y-310700000D03*
D11*
X97710000Y-325940000D03*
D12*
X88350000Y-312620000D03*
X82000000Y-315160000D03*
%TD*%
D10*
%TO.C,SW20*%
X183150000Y-260520000D03*
D11*
X188230000Y-260520000D03*
D10*
X193310000Y-260520000D03*
D12*
X190770000Y-255440000D03*
X184420000Y-257980000D03*
%TD*%
D10*
%TO.C,SW36*%
X230720000Y-279590000D03*
D11*
X235800000Y-279590000D03*
D10*
X240880000Y-279590000D03*
D12*
X238340000Y-274510000D03*
X231990000Y-277050000D03*
%TD*%
D10*
%TO.C,SW64*%
X264090000Y-317710000D03*
D11*
X269170000Y-317710000D03*
D10*
X274250000Y-317710000D03*
D12*
X271710000Y-312630000D03*
X265360000Y-315170000D03*
%TD*%
D10*
%TO.C,SW8*%
X230720000Y-232010000D03*
D11*
X235800000Y-232010000D03*
D10*
X240880000Y-232010000D03*
D12*
X238340000Y-226930000D03*
X231990000Y-229470000D03*
%TD*%
D10*
%TO.C,SW50*%
X235440000Y-298600000D03*
D11*
X240520000Y-298600000D03*
D10*
X245600000Y-298600000D03*
D12*
X243060000Y-293520000D03*
X236710000Y-296060000D03*
%TD*%
D13*
%TO.C,SW54*%
X316790000Y-291622500D03*
D11*
X316790000Y-306862500D03*
D10*
X323610000Y-298622500D03*
D11*
X328690000Y-298622500D03*
D10*
X333770000Y-298622500D03*
D13*
X340590000Y-291622500D03*
D11*
X340590000Y-306862500D03*
D12*
X331230000Y-293542500D03*
X324880000Y-296082500D03*
%TD*%
D10*
%TO.C,SW31*%
X135470000Y-279590000D03*
D11*
X140550000Y-279590000D03*
D10*
X145630000Y-279590000D03*
D12*
X143090000Y-274510000D03*
X136740000Y-277050000D03*
%TD*%
D10*
%TO.C,SW17*%
X125900000Y-260560000D03*
D11*
X130980000Y-260560000D03*
D10*
X136060000Y-260560000D03*
D12*
X133520000Y-255480000D03*
X127170000Y-258020000D03*
%TD*%
D10*
%TO.C,SW21*%
X202190000Y-260520000D03*
D11*
X207270000Y-260520000D03*
D10*
X212350000Y-260520000D03*
D12*
X209810000Y-255440000D03*
X203460000Y-257980000D03*
%TD*%
D16*
%TO.C,SW79*%
X401910000Y-226900000D03*
D17*
X401910000Y-231900000D03*
X401910000Y-229400000D03*
D18*
X409410000Y-223800000D03*
X409410000Y-235000000D03*
D17*
X416410000Y-231900000D03*
X416410000Y-226900000D03*
%TD*%
D10*
%TO.C,SW60*%
X187880000Y-317670000D03*
D11*
X192960000Y-317670000D03*
D10*
X198040000Y-317670000D03*
D12*
X195500000Y-312590000D03*
X189150000Y-315130000D03*
%TD*%
D10*
%TO.C,SW71*%
X142680000Y-336790000D03*
D11*
X147760000Y-336790000D03*
D10*
X152840000Y-336790000D03*
D12*
X150300000Y-331710000D03*
X143950000Y-334250000D03*
%TD*%
D10*
%TO.C,SW76*%
X359340000Y-336700000D03*
D11*
X364420000Y-336700000D03*
D10*
X369500000Y-336700000D03*
D12*
X366960000Y-331620000D03*
X360610000Y-334160000D03*
%TD*%
D10*
%TO.C,SW69*%
X95010000Y-336750000D03*
D11*
X100090000Y-336750000D03*
D10*
X105170000Y-336750000D03*
D12*
X102630000Y-331670000D03*
X96280000Y-334210000D03*
%TD*%
D10*
%TO.C,SW48*%
X197390000Y-298650000D03*
D11*
X202470000Y-298650000D03*
D10*
X207550000Y-298650000D03*
D12*
X205010000Y-293570000D03*
X198660000Y-296110000D03*
%TD*%
D10*
%TO.C,SW11*%
X297400000Y-231970000D03*
D11*
X302480000Y-231970000D03*
D10*
X307560000Y-231970000D03*
D12*
X305020000Y-226890000D03*
X298670000Y-229430000D03*
%TD*%
D10*
%TO.C,SW63*%
X245030000Y-317710000D03*
D11*
X250110000Y-317710000D03*
D10*
X255190000Y-317710000D03*
D12*
X252650000Y-312630000D03*
X246300000Y-315170000D03*
%TD*%
D10*
%TO.C,SW29*%
X97380000Y-279600000D03*
D11*
X102460000Y-279600000D03*
D10*
X107540000Y-279600000D03*
D12*
X105000000Y-274520000D03*
X98650000Y-277060000D03*
%TD*%
D10*
%TO.C,SW46*%
X159280000Y-298620000D03*
D11*
X164360000Y-298620000D03*
D10*
X169440000Y-298620000D03*
D12*
X166900000Y-293540000D03*
X160550000Y-296080000D03*
%TD*%
D10*
%TO.C,SW33*%
X173540000Y-279570000D03*
D11*
X178620000Y-279570000D03*
D10*
X183700000Y-279570000D03*
D12*
X181160000Y-274490000D03*
X174810000Y-277030000D03*
%TD*%
D10*
%TO.C,SW41*%
X330760000Y-279600000D03*
D11*
X335840000Y-279600000D03*
D10*
X340920000Y-279600000D03*
D12*
X338380000Y-274520000D03*
X332030000Y-277060000D03*
%TD*%
D10*
%TO.C,SW1*%
X68815000Y-231950000D03*
D11*
X73895000Y-231950000D03*
D10*
X78975000Y-231950000D03*
D12*
X76435000Y-226870000D03*
X70085000Y-229410000D03*
%TD*%
D10*
%TO.C,SW25*%
X278380000Y-260560000D03*
D11*
X283460000Y-260560000D03*
D10*
X288540000Y-260560000D03*
D12*
X286000000Y-255480000D03*
X279650000Y-258020000D03*
%TD*%
D10*
%TO.C,SW57*%
X130770000Y-317700000D03*
D11*
X135850000Y-317700000D03*
D10*
X140930000Y-317700000D03*
D12*
X138390000Y-312620000D03*
X132040000Y-315160000D03*
%TD*%
D10*
%TO.C,SW40*%
X306920000Y-279580000D03*
D11*
X312000000Y-279580000D03*
D10*
X317080000Y-279580000D03*
D12*
X314540000Y-274500000D03*
X308190000Y-277040000D03*
%TD*%
D10*
%TO.C,SW61*%
X206930000Y-317670000D03*
D11*
X212010000Y-317670000D03*
D10*
X217090000Y-317670000D03*
D12*
X214550000Y-312590000D03*
X208200000Y-315130000D03*
%TD*%
D10*
%TO.C,SW9*%
X249810000Y-231910000D03*
D11*
X254890000Y-231910000D03*
D10*
X259970000Y-231910000D03*
D12*
X257430000Y-226830000D03*
X251080000Y-229370000D03*
%TD*%
D10*
%TO.C,SW5*%
X164090000Y-231930000D03*
D11*
X169170000Y-231930000D03*
D10*
X174250000Y-231930000D03*
D12*
X171710000Y-226850000D03*
X165360000Y-229390000D03*
%TD*%
D10*
%TO.C,SW14*%
X68740000Y-260520000D03*
D11*
X73820000Y-260520000D03*
D10*
X78900000Y-260520000D03*
D12*
X76360000Y-255440000D03*
X70010000Y-257980000D03*
%TD*%
D10*
%TO.C,SW77*%
X378400000Y-336770000D03*
D11*
X383480000Y-336770000D03*
D10*
X388560000Y-336770000D03*
D12*
X386020000Y-331690000D03*
X379670000Y-334230000D03*
%TD*%
D10*
%TO.C,SW75*%
X333120000Y-336760000D03*
D11*
X338200000Y-336760000D03*
D10*
X343280000Y-336760000D03*
D12*
X340740000Y-331680000D03*
X334390000Y-334220000D03*
%TD*%
D10*
%TO.C,SW53*%
X292690000Y-298660000D03*
D11*
X297770000Y-298660000D03*
D10*
X302850000Y-298660000D03*
D12*
X300310000Y-293580000D03*
X293960000Y-296120000D03*
%TD*%
D10*
%TO.C,SW70*%
X118840000Y-336730000D03*
D11*
X123920000Y-336730000D03*
D10*
X129000000Y-336730000D03*
D12*
X126460000Y-331650000D03*
X120110000Y-334190000D03*
%TD*%
D10*
%TO.C,SW15*%
X87880000Y-260560000D03*
D11*
X92960000Y-260560000D03*
D10*
X98040000Y-260560000D03*
D12*
X95500000Y-255480000D03*
X89150000Y-258020000D03*
%TD*%
D10*
%TO.C,SW62*%
X225980000Y-317670000D03*
D11*
X231060000Y-317670000D03*
D10*
X236140000Y-317670000D03*
D12*
X233600000Y-312590000D03*
X227250000Y-315130000D03*
%TD*%
D10*
%TO.C,SW56*%
X111650000Y-317670000D03*
D11*
X116730000Y-317670000D03*
D10*
X121810000Y-317670000D03*
D12*
X119270000Y-312590000D03*
X112920000Y-315130000D03*
%TD*%
D10*
%TO.C,SW3*%
X125930000Y-231960000D03*
D11*
X131010000Y-231960000D03*
D10*
X136090000Y-231960000D03*
D12*
X133550000Y-226880000D03*
X127200000Y-229420000D03*
%TD*%
D10*
%TO.C,SW65*%
X283120000Y-317670000D03*
D11*
X288200000Y-317670000D03*
D10*
X293280000Y-317670000D03*
D12*
X290740000Y-312590000D03*
X284390000Y-315130000D03*
%TD*%
D10*
%TO.C,SW38*%
X268810000Y-279610000D03*
D11*
X273890000Y-279610000D03*
D10*
X278970000Y-279610000D03*
D12*
X276430000Y-274530000D03*
X270080000Y-277070000D03*
%TD*%
D10*
%TO.C,SW67*%
X378390000Y-317710000D03*
D11*
X383470000Y-317710000D03*
D10*
X388550000Y-317710000D03*
D12*
X386010000Y-312630000D03*
X379660000Y-315170000D03*
%TD*%
D10*
%TO.C,SW24*%
X259270000Y-260590000D03*
D11*
X264350000Y-260590000D03*
D10*
X269430000Y-260590000D03*
D12*
X266890000Y-255510000D03*
X260540000Y-258050000D03*
%TD*%
D10*
%TO.C,SW30*%
X116460000Y-279590000D03*
D11*
X121540000Y-279590000D03*
D10*
X126620000Y-279590000D03*
D12*
X124080000Y-274510000D03*
X117730000Y-277050000D03*
%TD*%
D10*
%TO.C,SW51*%
X254590000Y-298690000D03*
D11*
X259670000Y-298690000D03*
D10*
X264750000Y-298690000D03*
D12*
X262210000Y-293610000D03*
X255860000Y-296150000D03*
%TD*%
D10*
%TO.C,SW73*%
X285490000Y-336710000D03*
D11*
X290570000Y-336710000D03*
D10*
X295650000Y-336710000D03*
D12*
X293110000Y-331630000D03*
X286760000Y-334170000D03*
%TD*%
D10*
%TO.C,SW13*%
X335500000Y-231950000D03*
D11*
X340580000Y-231950000D03*
D10*
X345660000Y-231950000D03*
D12*
X343120000Y-226870000D03*
X336770000Y-229410000D03*
%TD*%
D13*
%TO.C,SW66*%
X312030000Y-310670000D03*
D11*
X312030000Y-325910000D03*
D10*
X318850000Y-317670000D03*
D11*
X323930000Y-317670000D03*
D10*
X329010000Y-317670000D03*
D13*
X335830000Y-310670000D03*
D11*
X335830000Y-325910000D03*
D12*
X326470000Y-312590000D03*
X320120000Y-315130000D03*
%TD*%
D19*
%TO.C,D6*%
X207850000Y-236300000D03*
D20*
X207850000Y-228680000D03*
%TD*%
D19*
%TO.C,D52*%
X288875000Y-302250000D03*
D20*
X288875000Y-294630000D03*
%TD*%
D19*
%TO.C,D4*%
X159250000Y-236095000D03*
D20*
X159250000Y-228475000D03*
%TD*%
D19*
%TO.C,D69*%
X111890000Y-340760000D03*
D20*
X111890000Y-333140000D03*
%TD*%
D19*
%TO.C,D54*%
X350675000Y-301575000D03*
D20*
X350675000Y-293955000D03*
%TD*%
D19*
%TO.C,D40*%
X322175000Y-283550000D03*
D20*
X322175000Y-275930000D03*
%TD*%
D19*
%TO.C,D57*%
X145350000Y-322670000D03*
D20*
X145350000Y-315050000D03*
%TD*%
D19*
%TO.C,D2*%
X121275000Y-235550000D03*
D20*
X121275000Y-227930000D03*
%TD*%
D19*
%TO.C,D12*%
X331425000Y-235250000D03*
D20*
X331425000Y-227630000D03*
%TD*%
D19*
%TO.C,D47*%
X193250000Y-303150000D03*
D20*
X193250000Y-295530000D03*
%TD*%
D19*
%TO.C,D21*%
X216825000Y-263775000D03*
D20*
X216825000Y-256155000D03*
%TD*%
D19*
%TO.C,D25*%
X293100000Y-263950000D03*
D20*
X293100000Y-256330000D03*
%TD*%
D19*
%TO.C,D16*%
X121425000Y-263150000D03*
D20*
X121425000Y-255530000D03*
%TD*%
D19*
%TO.C,D36*%
X245950000Y-282875000D03*
D20*
X245950000Y-275255000D03*
%TD*%
D19*
%TO.C,D17*%
X140700000Y-263800000D03*
D20*
X140700000Y-256180000D03*
%TD*%
D19*
%TO.C,D62*%
X240700000Y-321600000D03*
D20*
X240700000Y-313980000D03*
%TD*%
D19*
%TO.C,D1*%
X83500000Y-236100000D03*
D20*
X83500000Y-228480000D03*
%TD*%
D19*
%TO.C,D20*%
X197500000Y-264200000D03*
D20*
X197500000Y-256580000D03*
%TD*%
D19*
%TO.C,D8*%
X246350000Y-235900000D03*
D20*
X246350000Y-228280000D03*
%TD*%
D19*
%TO.C,D24*%
X274050000Y-264350000D03*
D20*
X274050000Y-256730000D03*
%TD*%
D19*
%TO.C,D70*%
X135670000Y-339970000D03*
D20*
X135670000Y-332350000D03*
%TD*%
D19*
%TO.C,D14*%
X83400000Y-263825000D03*
D20*
X83400000Y-256205000D03*
%TD*%
D19*
%TO.C,D13*%
X350650000Y-235475000D03*
D20*
X350650000Y-227855000D03*
%TD*%
D19*
%TO.C,D55*%
X106975000Y-322150000D03*
D20*
X106975000Y-314530000D03*
%TD*%
D19*
%TO.C,D75*%
X350930000Y-339950000D03*
D20*
X350930000Y-332330000D03*
%TD*%
D19*
%TO.C,D23*%
X254650000Y-264225000D03*
D20*
X254650000Y-256605000D03*
%TD*%
D19*
%TO.C,D26*%
X312275000Y-263925000D03*
D20*
X312275000Y-256305000D03*
%TD*%
D19*
%TO.C,D68*%
X88180000Y-340440000D03*
D20*
X88180000Y-332820000D03*
%TD*%
D19*
%TO.C,D49*%
X231725000Y-301975000D03*
D20*
X231725000Y-294355000D03*
%TD*%
D19*
%TO.C,D10*%
X293300000Y-235350000D03*
D20*
X293300000Y-227730000D03*
%TD*%
D19*
%TO.C,D37*%
X264220000Y-283210000D03*
D20*
X264220000Y-275590000D03*
%TD*%
D19*
%TO.C,D42*%
X97800000Y-302350000D03*
D20*
X97800000Y-294730000D03*
%TD*%
D19*
%TO.C,D78*%
X412020000Y-339840000D03*
D20*
X412020000Y-332220000D03*
%TD*%
D19*
%TO.C,D5*%
X178425000Y-236250000D03*
D20*
X178425000Y-228630000D03*
%TD*%
D19*
%TO.C,D45*%
X155375000Y-303050000D03*
D20*
X155375000Y-295430000D03*
%TD*%
D19*
%TO.C,D19*%
X178425000Y-264600000D03*
D20*
X178425000Y-256980000D03*
%TD*%
D19*
%TO.C,D32*%
X169750000Y-282750000D03*
D20*
X169750000Y-275130000D03*
%TD*%
D21*
%TO.C,U1*%
X371465000Y-219910000D03*
D22*
X371165000Y-222940000D03*
X366315000Y-222940000D03*
D21*
X366015000Y-219910000D03*
D15*
X377630000Y-219780000D03*
X377630000Y-222320000D03*
D14*
X377630000Y-224860000D03*
D15*
X377630000Y-227400000D03*
X377630000Y-229940000D03*
X377630000Y-232480000D03*
X377630000Y-235020000D03*
D14*
X377630000Y-237560000D03*
D15*
X377630000Y-240100000D03*
X377630000Y-242640000D03*
X377630000Y-245180000D03*
X377630000Y-247720000D03*
D14*
X377630000Y-250260000D03*
D15*
X377630000Y-252800000D03*
X377630000Y-255340000D03*
X377630000Y-257880000D03*
X377630000Y-260420000D03*
D14*
X377630000Y-262960000D03*
D15*
X377630000Y-265500000D03*
X377630000Y-268040000D03*
X359850000Y-268040000D03*
X359850000Y-265500000D03*
D14*
X359850000Y-262960000D03*
D15*
X359850000Y-260420000D03*
X359850000Y-257880000D03*
X359850000Y-255340000D03*
X359850000Y-252800000D03*
D14*
X359850000Y-250260000D03*
D15*
X359850000Y-247720000D03*
X359850000Y-245180000D03*
X359850000Y-242640000D03*
X359850000Y-240100000D03*
D14*
X359850000Y-237560000D03*
D15*
X359850000Y-235020000D03*
X359850000Y-232480000D03*
X359850000Y-229940000D03*
X359850000Y-227400000D03*
D14*
X359850000Y-224860000D03*
D15*
X359850000Y-222320000D03*
X359850000Y-219780000D03*
X371280000Y-267810000D03*
D14*
X368740000Y-267810000D03*
D15*
X366200000Y-267810000D03*
%TD*%
D19*
%TO.C,D64*%
X278875000Y-321725000D03*
D20*
X278875000Y-314105000D03*
%TD*%
D19*
%TO.C,D72*%
X279000000Y-339960000D03*
D20*
X279000000Y-332340000D03*
%TD*%
D19*
%TO.C,D60*%
X202350000Y-321725000D03*
D20*
X202350000Y-314105000D03*
%TD*%
D19*
%TO.C,D31*%
X150525000Y-283075000D03*
D20*
X150525000Y-275455000D03*
%TD*%
D19*
%TO.C,D39*%
X303625000Y-283235000D03*
D20*
X303625000Y-275615000D03*
%TD*%
D19*
%TO.C,D76*%
X373940000Y-339760000D03*
D20*
X373940000Y-332140000D03*
%TD*%
D19*
%TO.C,D56*%
X126450000Y-322625000D03*
D20*
X126450000Y-315005000D03*
%TD*%
D19*
%TO.C,D48*%
X212650000Y-302125000D03*
D20*
X212650000Y-294505000D03*
%TD*%
D19*
%TO.C,D53*%
X307600000Y-302500000D03*
D20*
X307600000Y-294880000D03*
%TD*%
D19*
%TO.C,D3*%
X140675000Y-235975000D03*
D20*
X140675000Y-228355000D03*
%TD*%
D19*
%TO.C,D65*%
X298000000Y-321825000D03*
D20*
X298000000Y-314205000D03*
%TD*%
D19*
%TO.C,D74*%
X326870000Y-340190000D03*
D20*
X326870000Y-332570000D03*
%TD*%
D19*
%TO.C,D28*%
X92825000Y-282575000D03*
D20*
X92825000Y-274955000D03*
%TD*%
D19*
%TO.C,D71*%
X159760000Y-340070000D03*
D20*
X159760000Y-332450000D03*
%TD*%
D19*
%TO.C,D50*%
X250800000Y-302225000D03*
D20*
X250800000Y-294605000D03*
%TD*%
D19*
%TO.C,D77*%
X393140000Y-339230000D03*
D20*
X393140000Y-331610000D03*
%TD*%
D19*
%TO.C,D41*%
X350250000Y-282710000D03*
D20*
X350250000Y-275090000D03*
%TD*%
D19*
%TO.C,D38*%
X284475000Y-283000000D03*
D20*
X284475000Y-275380000D03*
%TD*%
D19*
%TO.C,D63*%
X259750000Y-321775000D03*
D20*
X259750000Y-314155000D03*
%TD*%
D19*
%TO.C,D11*%
X312475000Y-235125000D03*
D20*
X312475000Y-227505000D03*
%TD*%
D19*
%TO.C,D15*%
X102075000Y-263625000D03*
D20*
X102075000Y-256005000D03*
%TD*%
D19*
%TO.C,D67*%
X399310000Y-320750000D03*
D20*
X399310000Y-313130000D03*
%TD*%
D19*
%TO.C,D9*%
X265375000Y-236025000D03*
D20*
X265375000Y-228405000D03*
%TD*%
D19*
%TO.C,D59*%
X183675000Y-321375000D03*
D20*
X183675000Y-313755000D03*
%TD*%
D19*
%TO.C,D22*%
X235800000Y-264025000D03*
D20*
X235800000Y-256405000D03*
%TD*%
D19*
%TO.C,D27*%
X350450000Y-263575000D03*
D20*
X350450000Y-255955000D03*
%TD*%
D19*
%TO.C,D46*%
X174075000Y-302675000D03*
D20*
X174075000Y-295055000D03*
%TD*%
D19*
%TO.C,D18*%
X159575000Y-264375000D03*
D20*
X159575000Y-256755000D03*
%TD*%
D19*
%TO.C,D7*%
X227025000Y-235750000D03*
D20*
X227025000Y-228130000D03*
%TD*%
D19*
%TO.C,D58*%
X164350000Y-322400000D03*
D20*
X164350000Y-314780000D03*
%TD*%
D19*
%TO.C,D44*%
X135925000Y-303225000D03*
D20*
X135925000Y-295605000D03*
%TD*%
D19*
%TO.C,D66*%
X350300000Y-321150000D03*
D20*
X350300000Y-313530000D03*
%TD*%
D19*
%TO.C,D30*%
X131500000Y-283000000D03*
D20*
X131500000Y-275380000D03*
%TD*%
D19*
%TO.C,D34*%
X207925000Y-282350000D03*
D20*
X207925000Y-274730000D03*
%TD*%
D19*
%TO.C,D73*%
X302860000Y-339820000D03*
D20*
X302860000Y-332200000D03*
%TD*%
D19*
%TO.C,D33*%
X188825000Y-282475000D03*
D20*
X188825000Y-274855000D03*
%TD*%
D19*
%TO.C,D51*%
X270175000Y-302225000D03*
D20*
X270175000Y-294605000D03*
%TD*%
D19*
%TO.C,D61*%
X221575000Y-321775000D03*
D20*
X221575000Y-314155000D03*
%TD*%
D19*
%TO.C,D29*%
X112150000Y-282750000D03*
D20*
X112150000Y-275130000D03*
%TD*%
D19*
%TO.C,D79*%
X418760000Y-234080000D03*
D20*
X418760000Y-226460000D03*
%TD*%
D19*
%TO.C,D43*%
X116550000Y-303150000D03*
D20*
X116550000Y-295530000D03*
%TD*%
D19*
%TO.C,D35*%
X227150000Y-282750000D03*
D20*
X227150000Y-275130000D03*
%TD*%
M02*
